<svg xmlns="http://www.w3.org/2000/svg" width="23.934" height="39.5" viewBox="0 0 23.934 39.5">
    <g id="medal_1_" data-name="medal (1)" transform="translate(-100.885)">
        <g id="Group_201" data-name="Group 201" transform="translate(100.885 0)">
            <path id="Path_287" data-name="Path 287"
                d="M124.819.4V6.99L123.811,8.6l-6.378,4.918H108.27l-6.492-5.006-.894-1.525V.4a.4.4,0,0,1,.4-.4H124.42a.4.4,0,0,1,.4.4Z"
                transform="translate(-100.885 0)" fill="#c61926" />
            <path id="Path_288" data-name="Path 288"
                d="M108.27,96.3l-7.385-5.7v1.238a.4.4,0,0,0,.155.315l4.227,3.26,1.5.562,1.5,1.754h9.163l1.529-1.775,1.474-.541,4.227-3.26a.4.4,0,0,0,.155-.315V90.6l-7.385,5.7Z"
                transform="translate(-100.885 -83.611)" fill="#ad1729" />
            <path id="Path_289" data-name="Path 289"
                d="M182.953,185.542h-8.568a2.181,2.181,0,0,1-2.181-2.181V183h12.929v.36A2.181,2.181,0,0,1,182.953,185.542Z"
                transform="translate(-166.702 -168.883)" fill="#ffe27a" />
            <path id="Path_290" data-name="Path 290"
                d="M182.953,184.8h-8.568a2.181,2.181,0,0,1-2.147-1.8H172.2v1.054a2.181,2.181,0,0,0,2.181,2.181h8.568a2.181,2.181,0,0,0,2.181-2.181V183H185.1A2.181,2.181,0,0,1,182.953,184.8Z"
                transform="translate(-166.702 -168.884)" fill="#f9cf58" />
            <path id="Path_291" data-name="Path 291"
                d="M134.615,236.009a2.8,2.8,0,0,0-1.99-2.682,9.411,9.411,0,0,0-.764-1.844,2.8,2.8,0,0,0-3.794-3.794,9.412,9.412,0,0,0-1.844-.764,2.8,2.8,0,0,0-5.365,0,9.41,9.41,0,0,0-1.844.764,2.8,2.8,0,0,0-3.794,3.794,9.412,9.412,0,0,0-.764,1.844,2.8,2.8,0,0,0,0,5.365,9.408,9.408,0,0,0,.764,1.844,5.145,5.145,0,0,0-.237.6l.282,1.74,3.749.757,4.525,2.847,4.527-2.847,3.774-.757.257-1.74a5.153,5.153,0,0,0-.237-.6,9.411,9.411,0,0,0,.764-1.844A2.8,2.8,0,0,0,134.615,236.009Z"
                transform="translate(-111.574 -207.583)" fill="#ffcb5b" />
            <g id="Group_199" data-name="Group 199" transform="translate(3.317 33.556)">
                <path id="Path_292" data-name="Path 292"
                    d="M160.359,436.218a2.8,2.8,0,0,1-3.133.574.4.4,0,0,0-.349.011,9.416,9.416,0,0,1-1.472.61.4.4,0,0,0-.256.242,2.8,2.8,0,0,1-5.24,0,.4.4,0,0,0-.256-.242,9.415,9.415,0,0,1-1.472-.61.4.4,0,0,0-.349-.011,2.8,2.8,0,0,1-3.859-1.841,2.8,2.8,0,0,0,4.03,3.191,9.411,9.411,0,0,0,1.844.764,2.8,2.8,0,0,0,5.365,0,9.411,9.411,0,0,0,1.844-.764,2.8,2.8,0,0,0,4.03-3.191A2.786,2.786,0,0,1,160.359,436.218Z"
                    transform="translate(-143.879 -434.951)" fill="#f7b737" />
            </g>
            <path id="Path_293" data-name="Path 293"
                d="M174.235,292.224c-6.833,0-6.856-6.389-6.833-6.62a6.869,6.869,0,0,1,13.665-.015C181.091,285.825,181.067,292.224,174.235,292.224Z"
                transform="translate(-162.268 -257.88)" fill="#ff9838" />
            <path id="Path_294" data-name="Path 294"
                d="M173.839,365.329a6.869,6.869,0,0,1-6.831-6.152,6.938,6.938,0,0,0-.037.717,6.869,6.869,0,1,0,13.7-.717A6.869,6.869,0,0,1,173.839,365.329Z"
                transform="translate(-161.872 -331.467)" fill="#ff8709" />
            <path id="Path_295" data-name="Path 295"
                d="M317.908,11.578l-2.01,1.55-.511-.443V0h3V10.369Z"
                transform="translate(-298.839 0)" fill="#ff4755" />
            <path id="Path_296" data-name="Path 296"
                d="M158.168,11.578l2.01,1.55.511-.443V0h-3V10.369Z"
                transform="translate(-153.303 0)" fill="#ff4755" />
            <g id="Group_200" data-name="Group 200" transform="translate(4.382 10.369)">
                <path id="Path_297" data-name="Path 297" d="M315.388,136.719v1.433l3-2.316V134.4Z"
                    transform="translate(-303.221 -134.403)" fill="#fc2b3a" />
                <path id="Path_298" data-name="Path 298"
                    d="M157.685,135.835l3,2.316v-1.433l-3-2.316Z"
                    transform="translate(-157.685 -134.402)" fill="#fc2b3a" />
            </g>
        </g>
        <path id="Path_299" data-name="Path 299"
            d="M165.264,176.454H150.013a.6.6,0,1,1,0-1.195h15.251a.6.6,0,0,1,0,1.195Z"
            transform="translate(-44.787 -161.738)" fill="#ff9838" />
    </g>
</svg>
