<svg xmlns="http://www.w3.org/2000/svg" width="34.852" height="39.5" viewBox="0 0 34.852 39.5">
    <g id="gift" transform="translate(-30.123 0.001)">
        <path id="Path_269" data-name="Path 269"
            d="M64.975,27.728V11.076a2.4,2.4,0,0,0-1.2-2.082L48.751.322a2.4,2.4,0,0,0-2.4,0L31.325,8.995a2.4,2.4,0,0,0-1.2,2.082V27.728a2.4,2.4,0,0,0,1.2,2.082l15.022,8.673a2.4,2.4,0,0,0,2.4,0L63.773,29.81A2.4,2.4,0,0,0,64.975,27.728Z"
            transform="translate(0 0)" fill="#ff4755" />
        <path id="Path_270" data-name="Path 270"
            d="M63.773,351.923,48.751,360.6a2.4,2.4,0,0,1-2.4,0l-15.022-8.673a2.4,2.4,0,0,1-1.2-2.082v1.433a2.4,2.4,0,0,0,1.2,2.082l15.022,8.673a2.4,2.4,0,0,0,2.4,0l15.022-8.673a2.4,2.4,0,0,0,1.2-2.082v-1.433A2.4,2.4,0,0,1,63.773,351.923Z"
            transform="translate(0 -322.852)" fill="#fc2b3a" />
        <path id="Path_271" data-name="Path 271"
            d="M99.919,66.858V52.08a.4.4,0,0,0-.2-.345l-13.84-7.99a.4.4,0,0,0-.4,0l-13.84,7.99a.4.4,0,0,0-.2.345V66.858l.832,1.22,13.406,7.74,13.406-7.74Z"
            transform="translate(-38.132 -40.321)" fill="#fff5f5" />
        <path id="Path_272" data-name="Path 272"
            d="M71.443,343.973v1.2a.4.4,0,0,0,.2.345l13.84,7.991a.4.4,0,0,0,.4,0l13.84-7.991a.4.4,0,0,0,.2-.345v-1.2L85.88,352.078a.4.4,0,0,1-.4,0Z"
            transform="translate(-38.132 -317.437)" fill="#efe2dd" />
        <g id="Group_195" data-name="Group 195" transform="translate(38.71 10.419)">
            <path id="Path_273" data-name="Path 273"
                d="M169.7,244.391H155.464l-.694.739v6.734a1.593,1.593,0,0,0,1.593,1.593h5.62l.6-.694.6.694h5.62a1.593,1.593,0,0,0,1.593-1.593V245.13Z"
                transform="translate(-153.741 -235.956)" fill="#ffcb5b" />
            <path id="Path_274" data-name="Path 274"
                d="M154.77,227.085v1.434h15.619v-1.434l-7.81-.694Z"
                transform="translate(-153.741 -219.345)" fill="#f7b737" />
            <path id="Path_275" data-name="Path 275"
                d="M276.83,135.108c-1.244-.349-3.2,1.317-4.16,2.24l.156,1.023.694.739h3.4l.9-.739C277.931,137.1,277.873,135.4,276.83,135.108Z"
                transform="translate(-262.545 -135.061)" fill="#ff4755" />
            <path id="Path_276" data-name="Path 276"
                d="M266.392,177.964l-.694.739.694.694,2.438.694,2.346-.694a12.714,12.714,0,0,0,.208-1.433Z"
                transform="translate(-256.111 -174.654)" fill="#fc2b3a" />
            <path id="Path_277" data-name="Path 277"
                d="M177.252,137.347c-.962-.923-2.916-2.589-4.16-2.239-1.043.293-1.1,1.992-.989,3.262l.9.739h3.4l.694-.739Z"
                transform="translate(-169.7 -135.061)" fill="#ff4755" />
            <path id="Path_278" data-name="Path 278"
                d="M172.587,177.964a12.713,12.713,0,0,0,.208,1.433l2.346.694,2.438-.694.694-.694-.694-.739Z"
                transform="translate(-170.183 -174.654)" fill="#fc2b3a" />
            <path id="Path_279" data-name="Path 279"
                d="M239.488,164.538h-1.5l-.694-.739v-.642a.542.542,0,0,1,.542-.542h1.8a.542.542,0,0,1,.542.542v.642Z"
                transform="translate(-229.901 -160.489)" fill="#c61926" />
            <path id="Path_280" data-name="Path 280"
                d="M237.3,177.964V179.4l1.443.694,1.443-.694v-1.433Z"
                transform="translate(-229.901 -174.654)" fill="#b2182b" />
            <path id="Path_281" data-name="Path 281"
                d="M248.258,253.457h1.195V245.13l-.6-.739-.6.739Z"
                transform="translate(-240.017 -235.956)" fill="#c61926" />
            <path id="Path_282" data-name="Path 282"
                d="M248.258,228.519h1.195v-1.434l-.6-.694-.6.694Z"
                transform="translate(-240.017 -219.345)" fill="#b2182b" />
            <path id="Path_283" data-name="Path 283"
                d="M158.415,198.847H142.126l-.694-.739v-1.165a.4.4,0,0,1,.4-.4h7.843l.6.694.6-.694h7.843a.4.4,0,0,1,.4.4v1.165Z"
                transform="translate(-141.432 -191.801)" fill="#ffe27a" />
            <path id="Path_284" data-name="Path 284"
                d="M141.83,218.244h7.843l.6-.694.6.694h7.843a.4.4,0,0,0,.4-.4v-1.035H141.432v1.035A.4.4,0,0,0,141.83,218.244Z"
                transform="translate(-141.432 -210.504)" fill="#f9cf58" />
            <path id="Path_285" data-name="Path 285"
                d="M248.855,198.847l.6-.739v-1.564h-1.195v1.564Z"
                transform="translate(-240.017 -191.801)" fill="#ff4755" />
            <path id="Path_286" data-name="Path 286" d="M248.258,218.244h1.195v-1.433h-1.195Z"
                transform="translate(-240.017 -210.504)" fill="#fc2b3a" />
        </g>
    </g>
</svg>
