<svg xmlns="http://www.w3.org/2000/svg" width="34.852" height="39.5" viewBox="0 0 34.852 39.5">
    <g id="badge" transform="translate(-30.123 0.001)">
        <g id="Group_162" data-name="Group 162" transform="translate(30.123 -0.001)">
            <path id="Path_200" data-name="Path 200"
                d="M64.975,27.728V11.076a2.4,2.4,0,0,0-1.2-2.082L48.751.322a2.4,2.4,0,0,0-2.4,0L31.325,8.995a2.4,2.4,0,0,0-1.2,2.082V27.728a2.4,2.4,0,0,0,1.2,2.082l15.022,8.673a2.4,2.4,0,0,0,2.4,0L63.773,29.81A2.4,2.4,0,0,0,64.975,27.728Z"
                transform="translate(-30.123 0.001)" fill="#ff4755" />
            <path id="Path_201" data-name="Path 201"
                d="M63.773,351.923,48.751,360.6a2.4,2.4,0,0,1-2.4,0l-15.022-8.673a2.4,2.4,0,0,1-1.2-2.082v1.434a2.4,2.4,0,0,0,1.2,2.082l15.022,8.673a2.4,2.4,0,0,0,2.4,0l15.022-8.673a2.4,2.4,0,0,0,1.2-2.082v-1.434A2.4,2.4,0,0,1,63.773,351.923Z"
                transform="translate(-30.123 -322.851)" fill="#fc2b3a" />
            <path id="Path_202" data-name="Path 202"
                d="M99.919,66.858V52.08a.4.4,0,0,0-.2-.345l-13.84-7.99a.4.4,0,0,0-.4,0l-13.84,7.99a.4.4,0,0,0-.2.345V66.858l.832,1.22,13.406,7.74,13.406-7.74Z"
                transform="translate(-68.255 -40.321)" fill="#fff5f5" />
            <path id="Path_203" data-name="Path 203"
                d="M71.443,343.973v1.2a.4.4,0,0,0,.2.345l13.84,7.991a.4.4,0,0,0,.4,0l13.84-7.991a.4.4,0,0,0,.2-.345v-1.2L85.88,352.078a.4.4,0,0,1-.4,0Z"
                transform="translate(-68.255 -317.436)" fill="#efe2dd" />
            <path id="Path_204" data-name="Path 204"
                d="M143.449,158.009l-9.081,10.06a1.593,1.593,0,0,1-2.372,0l-9.081-10.06,8.386-5.683h3.923Z"
                transform="translate(-115.755 -140.574)" fill="#ff9838" />
            <path id="Path_205" data-name="Path 205"
                d="M143.041,217.22l-8.675,9.676a1.593,1.593,0,0,1-2.372,0l-8.675-9.676a1.592,1.592,0,0,1-.236-.348,1.593,1.593,0,0,0,.236,1.781l8.675,9.676a1.583,1.583,0,0,0,.834.491l.338-.655.338.661a1.583,1.583,0,0,0,.862-.5l8.675-9.676a1.593,1.593,0,0,0,.236-1.781A1.585,1.585,0,0,1,143.041,217.22Z"
                transform="translate(-115.755 -200.141)" fill="#ff8709" />
            <g id="Group_160" data-name="Group 160" transform="translate(7.159 11.752)">
                <path id="Path_206" data-name="Path 206"
                    d="M128.092,158l3.212-5.677h-2.974a1.593,1.593,0,0,0-1.166.508l-3.819,4.1a1.588,1.588,0,0,0-.426,1.065h5.174Z"
                    transform="translate(-122.918 -152.327)" fill="#ffcb5b" />
                <path id="Path_207" data-name="Path 207" d="M122.916,225.945v0Z"
                    transform="translate(-122.916 -220.266)" fill="#8bcaff" />
            </g>
            <g id="Group_161" data-name="Group 161" transform="translate(19.468 11.752)">
                <path id="Path_208" data-name="Path 208" d="M389.084,225.954v-.008Z"
                    transform="translate(-380.859 -220.266)" fill="#8bcaff" />
                <path id="Path_209" data-name="Path 209"
                    d="M285.517,158h5.174a1.589,1.589,0,0,0-.426-1.065l-3.819-4.1a1.593,1.593,0,0,0-1.166-.508h-2.814Z"
                    transform="translate(-282.465 -152.326)" fill="#ffcb5b" />
            </g>
            <path id="Path_210" data-name="Path 210"
                d="M200.165,225.918H189.978l3.949,9.367.793,1.187h.7l.814-1.237Z"
                transform="translate(-177.645 -208.489)" fill="#ffcb5b" />
            <path id="Path_211" data-name="Path 211"
                d="M241.165,347.336l.793,1.881a1.6,1.6,0,0,0,.7,0l.793-1.881A1.59,1.59,0,0,1,241.165,347.336Z"
                transform="translate(-224.883 -320.54)" fill="#f7b737" />
        </g>
    </g>
</svg>
