<svg xmlns="http://www.w3.org/2000/svg" width="42.64" height="39.5" viewBox="0 0 42.64 39.5">
    <g id="badge_1_" data-name="badge (1)" transform="translate(0 -18.853)">
        <g id="Group_186" data-name="Group 186" transform="translate(0 18.853)">
            <path id="Path_239" data-name="Path 239"
                d="M380.66,189.224l-2.579-1.071a1.353,1.353,0,0,1-.8-.969l-.58-2.732a1.353,1.353,0,0,0-2.351-.6l-1.816,2.122a1.353,1.353,0,0,1-1.17.466l-.5-.053-1.223.541.538,6.165,6.566,2.583.884-.339.1-1.233a1.353,1.353,0,0,1,.673-1.064l2.419-1.4A1.353,1.353,0,0,0,380.66,189.224Z"
                transform="translate(-338.854 -169.676)" fill="#ffba57" />
            <path id="Path_240" data-name="Path 240"
                d="M331.029,217.013l1.972.208a2.487,2.487,0,0,0-.7,2.181l.638,3.722a.431.431,0,0,0,.3.34,31.628,31.628,0,0,1,6.521,2.707l-.118,1.481-4.1.674-3.927-3.757-3.284-3.637Z"
                transform="translate(-300.994 -200.51)" fill="#ffac3e" />
            <path id="Path_241" data-name="Path 241"
                d="M.834,189.224l2.579-1.071a1.353,1.353,0,0,0,.8-.969l.58-2.732a1.353,1.353,0,0,1,2.351-.6l1.816,2.122a1.353,1.353,0,0,0,1.17.466l.5-.053,1.223.541-.538,6.165-6.566,2.583-.884-.339-.1-1.233a1.353,1.353,0,0,0-.673-1.064l-2.419-1.4a1.353,1.353,0,0,1,.157-2.421Z"
                transform="translate(0 -169.676)" fill="#ffba57" />
            <path id="Path_242" data-name="Path 242"
                d="M55.175,217.013l-1.972.208a2.487,2.487,0,0,1,.7,2.181l-.638,3.722a.431.431,0,0,1-.3.34,31.625,31.625,0,0,0-6.521,2.707l.118,1.481,4.1.674,3.927-3.757,3.284-3.637Z"
                transform="translate(-42.57 -200.51)" fill="#ffac3e" />
            <path id="Path_243" data-name="Path 243"
                d="M97.25,34.77a2.488,2.488,0,0,1,.715,2.2l-.748,4.364,1.382.827h15.619l1.382-.827-.748-4.364a2.488,2.488,0,0,1,.715-2.2l3.677-3.584a2.487,2.487,0,0,0-1.379-4.243l-5.081-.738a2.487,2.487,0,0,1-1.873-1.361l-2.273-4.6a2.488,2.488,0,0,0-4.461,0l-2.273,4.6a2.488,2.488,0,0,1-1.873,1.361l-5.081.738a2.487,2.487,0,0,0-1.379,4.243Z"
                transform="translate(-85.089 -18.853)" fill="#ffe27a" />
            <path id="Path_244" data-name="Path 244"
                d="M143.9,276.69l-.12.7a2.51,2.51,0,0,0,0,.879H162.4a2.509,2.509,0,0,0,0-.879l-.12-.7a38.917,38.917,0,0,0-18.384,0Z"
                transform="translate(-131.772 -254.208)" fill="#f9cf58" />
            <path id="Path_245" data-name="Path 245"
                d="M391.838,394.377l-4.51.594.472,1.083-.994.527-.643,1.983a.43.43,0,0,0,.249.531,29.085,29.085,0,0,1,6.311,3.424.43.43,0,0,0,.684-.343l.025-2.782a.43.43,0,0,1,.228-.376l2.384-1.266a.43.43,0,0,0,.059-.722A30.327,30.327,0,0,0,391.838,394.377Z"
                transform="translate(-353.983 -363.103)" fill="#c61926" />
            <g id="Group_182" data-name="Group 182" transform="translate(32.823 31.868)">
                <g id="Group_181" data-name="Group 181">
                    <g id="Group_180" data-name="Group 180">
                        <path id="Path_246" data-name="Path 246"
                            d="M397.041,404.539a23.458,23.458,0,0,0-2.926-1.422l.522-1.61a20.816,20.816,0,0,1,3.492,1.738l-.478,1.095A.429.429,0,0,1,397.041,404.539Z"
                            transform="translate(-394.115 -401.507)" fill="#b2182b" />
                    </g>
                </g>
            </g>
            <path id="Path_247" data-name="Path 247"
                d="M8.652,394.377l4.51.594-.472,1.083.994.527.643,1.983a.43.43,0,0,1-.249.531,29.087,29.087,0,0,0-6.311,3.424.43.43,0,0,1-.683-.343l-.025-2.782a.43.43,0,0,0-.228-.376l-2.384-1.266a.43.43,0,0,1-.059-.722A30.333,30.333,0,0,1,8.652,394.377Z"
                transform="translate(-3.867 -363.103)" fill="#c61926" />
            <g id="Group_185" data-name="Group 185" transform="translate(5.803 31.868)">
                <g id="Group_184" data-name="Group 184">
                    <g id="Group_183" data-name="Group 183">
                        <path id="Path_248" data-name="Path 248"
                            d="M70.77,404.539a23.459,23.459,0,0,1,2.926-1.422l-.522-1.61a20.815,20.815,0,0,0-3.492,1.738l.478,1.095A.429.429,0,0,0,70.77,404.539Z"
                            transform="translate(-69.682 -401.507)" fill="#b2182b" />
                    </g>
                </g>
            </g>
            <path id="Path_249" data-name="Path 249"
                d="M72.353,303.381s-5.155-3.3-14.683-3.3-14.715,3.454-14.715,3.454l-1.523-.341-1.744-4a.429.429,0,0,1,.171-.54,35.677,35.677,0,0,1,17.81-4.489,35.676,35.676,0,0,1,17.81,4.489.429.429,0,0,1,.171.54l-1.744,4Z"
                transform="translate(-36.349 -271.241)" fill="#ff4755" />
            <path id="Path_250" data-name="Path 250"
                d="M77.268,352.864A32.057,32.057,0,0,0,61.031,357l.72,1.65a29.853,29.853,0,0,1,15.517-4.013,29.853,29.853,0,0,1,15.517,4.013l.72-1.65A32.057,32.057,0,0,0,77.268,352.864Z"
                transform="translate(-55.948 -325.047)" fill="#fc2b3a" />
        </g>
    </g>
</svg>
