<svg xmlns="http://www.w3.org/2000/svg" width="36.617" height="39.5" viewBox="0 0 36.617 39.5">
    <g id="_2583437" data-name="2583437" transform="translate(-100.531 0)">
        <g id="Group_174" data-name="Group 174" transform="translate(100.531 0)">
            <path id="Path_230" data-name="Path 230"
                d="M119.075.047l18.073,7.6c-2.1,24.481-18.309,30.792-18.309,30.792s-15.825-5.252-18.309-30.792L118.6.047a.608.608,0,0,1,.472,0Z"
                transform="translate(-100.531 0)" fill="#ffcb5b" />
            <path id="Path_231" data-name="Path 231"
                d="M119.056,93.943a.6.6,0,0,1-.433,0c-1.886-.724-15.524-6.724-17.908-29.661l-.184.078c1.864,26.478,18.309,31.852,18.309,31.852s16.445-5.375,18.309-31.852l-.184-.078C134.58,87.219,120.942,93.219,119.056,93.943Z"
                transform="translate(-100.531 -56.712)" fill="#f7b737" />
            <path id="Path_234" data-name="Path 234"
                d="M156.995,46.472l13.011,5.472c-1.518,16.995-13.247,21.987-13.247,21.987s-11.494-4.394-13.247-21.987l13.011-5.472A.609.609,0,0,1,156.995,46.472Z"
                transform="translate(-138.45 -40.957)" fill="#ff9838" />
            <path id="Path_235" data-name="Path 235"
                d="M156.533,113.437c-1.579-.626-10.961-4.99-12.823-20.856l-.2.084c1.348,19.158,13.247,23.046,13.247,23.046s11.9-3.889,13.247-23.046l-.2-.084c-1.862,15.866-11.244,20.23-12.823,20.856A.611.611,0,0,1,156.533,113.437Z"
                transform="translate(-138.45 -81.678)" fill="#ff8709" />
            <path id="Path_236" data-name="Path 236"
                d="M207.9,100.665l1.1,2.227a1.2,1.2,0,0,0,.9.658l2.453.357a1.2,1.2,0,0,1,.667,2.052l-1.776,1.733a1.2,1.2,0,0,0-.346,1.065l.419,2.443h-1.745l-2.752-1.463-2.753,1.462h-1.745l.419-2.443a1.2,1.2,0,0,0-.346-1.064l-1.776-1.733a1.2,1.2,0,0,1,.667-2.052l2.453-.357a1.2,1.2,0,0,0,.9-.658l1.1-2.227a1.2,1.2,0,0,1,2.155,0Z"
                transform="translate(-188.512 -88.219)" fill="#fff5f5" />
            <g id="Group_173" data-name="Group 173" transform="translate(13.792 20.693)">
                <path id="Path_237" data-name="Path 237"
                    d="M226.662,178l-4.214-2.218a.608.608,0,0,0-.567,0L217.668,178v0a1.2,1.2,0,0,0,1.743,1.268l2.2-1.155a1.2,1.2,0,0,1,1.118,0l2.2,1.155a1.2,1.2,0,0,0,1.743-1.268Z"
                    transform="translate(-217.648 -175.714)" fill="#efe2dd" />
            </g>
        </g>
    </g>
</svg>
