<svg xmlns="http://www.w3.org/2000/svg" width="28.676" height="39.5" viewBox="0 0 28.676 39.5">
    <g id="Group_1577" data-name="Group 1577" transform="translate(82.704 -188.382)">
        <path id="Path_212" data-name="Path 212"
            d="M271.633,353.26l.935.219L275.6,362.2a.4.4,0,0,1-.421.531l-4.256-.446a.4.4,0,0,0-.322.112l-3.059,2.992a.4.4,0,0,1-.66-.155l-3.056-8.78.442-.648Z"
            transform="translate(-331.592 -137.625)" fill="#ff4755" />
        <path id="Path_213" data-name="Path 213"
            d="M256.443,337.924l-.617-1.774,8.74-2.972.616,1.769A16.042,16.042,0,0,1,256.443,337.924Z"
            transform="translate(-324.205 -119.092)" fill="#fc2b3a" />
        <path id="Path_216" data-name="Path 216"
            d="M84.693,27.666c-14.32,0-14.332-13.811-14.32-14.05a14.339,14.339,0,0,1,28.641,0C99.025,13.855,99.031,27.666,84.693,27.666Z"
            transform="translate(-153.059 188.382)" fill="#ffcb5b" />
        <path id="Path_217" data-name="Path 217"
            d="M84.486,190.1a14.339,14.339,0,0,1-14.32-13.615q-.018.359-.018.723a14.338,14.338,0,1,0,28.676,0q0-.363-.018-.723A14.339,14.339,0,0,1,84.486,190.1Z"
            transform="translate(-152.852 25.512)" fill="#f7b737" />
        <path id="Path_218" data-name="Path 218"
            d="M121.144,61.087c-11.273,0-11.288-10.835-11.273-11.074a11.3,11.3,0,0,1,22.545,0C132.432,50.252,132.439,61.087,121.144,61.087Z"
            transform="translate(-189.51 151.984)" fill="#ff9838" />
        <path id="Path_219" data-name="Path 219"
            d="M120.883,187.058a11.3,11.3,0,0,1-11.272-10.573c-.015.239-.024.48-.024.723a11.3,11.3,0,1,0,22.591,0c0-.243-.009-.484-.024-.723A11.3,11.3,0,0,1,120.883,187.058Z"
            transform="translate(-189.249 25.512)" fill="#ff8709" />
        <path id="Path_220" data-name="Path 220"
            d="M181.675,106.844l1.053,2.135a1.153,1.153,0,0,0,.868.631l2.356.342a1.153,1.153,0,0,1,.639,1.967l-1.7,1.661a1.153,1.153,0,0,0-.332,1.021l.4,2.346a2.01,2.01,0,0,1-.061.618h-1.612l-2.643-1.486L178,117.564l-1.6.032a2,2,0,0,1-.074-.65l.4-2.346a1.153,1.153,0,0,0-.332-1.021l-1.7-1.661a1.153,1.153,0,0,1,.639-1.967l2.356-.342a1.153,1.153,0,0,0,.868-.631l1.053-2.135A1.153,1.153,0,0,1,181.675,106.844Z"
            transform="translate(-249.007 90.374)" fill="#fff5f5" />
        <g id="Group_163" data-name="Group 163" transform="translate(-72.621 205.753)">
            <path id="Path_221" data-name="Path 221"
                d="M204.915,225.214l-4.068,2.139a1.155,1.155,0,0,0,1.611.6l2.107-1.108a1.153,1.153,0,0,1,1.073,0l2.107,1.108a1.155,1.155,0,0,0,1.611-.6l-4.068-2.139a.4.4,0,0,0-.374,0Z"
                transform="translate(-200.847 -225.168)" fill="#efe2dd" />
        </g>
        <path id="Path_214" data-name="Path 214"
            d="M99.075,353.26l-.935.219L95.1,362.2a.4.4,0,0,0,.421.531l4.256-.446a.4.4,0,0,1,.322.112l3.059,2.992a.4.4,0,0,0,.66-.155l3.056-8.78-.442-.648Z"
            transform="translate(-175.861 -137.625)" fill="#ff4755" />
        <path id="Path_215" data-name="Path 215"
            d="M143.468,337.924l.618-1.774-8.74-2.972-.616,1.769A16.042,16.042,0,0,0,143.468,337.924Z"
            transform="translate(-212.452 -119.092)" fill="#fc2b3a" />
    </g>
</svg>
