<svg xmlns="http://www.w3.org/2000/svg" width="23.854" height="19.844" viewBox="0 0 23.854 19.844">
    <g id="ic_right_arrow" transform="translate(0 -41.346)">
        <g id="Group_1587" data-name="Group 1587" transform="translate(0 41.346)">
            <path id="Path_3283" data-name="Path 3283"
                d="M23.472,50.341l-8.614-8.615a1.309,1.309,0,0,0-1.846,0l-.782.782a1.3,1.3,0,0,0-.381.923,1.321,1.321,0,0,0,.381.934L17.255,49.4H1.289A1.274,1.274,0,0,0,0,50.686v1.106a1.323,1.323,0,0,0,1.289,1.34H17.312L12.23,58.2a1.293,1.293,0,0,0,0,1.833l.782.78a1.31,1.31,0,0,0,1.846,0l8.614-8.614a1.317,1.317,0,0,0,0-1.853Z"
                transform="translate(0 -41.346)" fill="#78c93c" />
        </g>
    </g>
</svg>
