<svg xmlns="http://www.w3.org/2000/svg" width="12.265" height="14.578" viewBox="0 0 12.265 14.578">
  <g id="ic_book" transform="translate(0)">
    <path id="Path_34" data-name="Path 34" d="M38.292,11.637h9.93a.379.379,0,0,0,.088-.011h.006a.384.384,0,0,0,.384-.384V.384A.384.384,0,0,0,48.316,0H38.292a1.856,1.856,0,0,0-1.854,1.854.394.394,0,0,0,0,.04c0,.944-.013,9.622,0,10.763,0,.022,0,.044,0,.067a1.856,1.856,0,0,0,1.738,1.849.381.381,0,0,0,.059.006H48.316a.384.384,0,0,0,.384-.384V12.748a.384.384,0,1,0-.768,0V13.81h-9.64a1.086,1.086,0,0,1-1.084-1.042c0-.01,0-.02,0-.031s0-.043,0-.078A1.087,1.087,0,0,1,38.292,11.637Zm.262-9.783a.384.384,0,1,1,.768,0v7.8a.384.384,0,1,1-.768,0Z" transform="translate(-36.435)" fill="#fff"/>
  </g>
</svg>
