<svg xmlns="http://www.w3.org/2000/svg" width="20.278" height="30" viewBox="0 0 20.278 30">
    <g id="ic_boy" transform="translate(-75.183)">
        <path id="Path_3490" data-name="Path 3490"
            d="M95.45,28.256l-.7-5.561a1.552,1.552,0,0,0-1.049-1.28l-3.148-1.049a.517.517,0,0,0-.645.3l-.778-.259a1.034,1.034,0,0,1-.707-.981V17.759l2.228-.928a3.1,3.1,0,0,0,1.91-2.865v-.517a1.551,1.551,0,0,0,1.135-2.61c.261-1.477.906-5.642.417-8.252A7.06,7.06,0,0,0,93.082,0a29.966,29.966,0,0,0-6.724,1.034L85.84,0S80.118,0,78.6,2.586h0s-2.586-.022-2.586,3.1a34.817,34.817,0,0,0,.912,5.173,1.551,1.551,0,0,0,1.157,2.585v.517a3.1,3.1,0,0,0,1.91,2.865l2.228.928v1.668a1.034,1.034,0,0,1-.707.981l-.778.259a.517.517,0,0,0-.645-.3L76.94,21.415a1.552,1.552,0,0,0-1.049,1.28l-.7,5.561A1.552,1.552,0,0,0,76.736,30H93.91A1.552,1.552,0,0,0,95.45,28.256Z"
            transform="translate(-0.001)" fill="#f6b47b" />
        <path id="Path_3491" data-name="Path 3491"
            d="M156,326h9.828v-9.539a.977.977,0,0,0-.548.41,5.166,5.166,0,0,1-8.732,0,.977.977,0,0,0-.548-.41Z"
            transform="translate(-75.592 -296.003)" fill="#9bce7a" />
        <path id="Path_3492" data-name="Path 3492"
            d="M176.749,274v1.711a1.034,1.034,0,0,1-.5.886,7.021,7.021,0,0,0,6.692-2.6h-6.191Z"
            transform="translate(-94.531 -256.284)" fill="#e2a071" />
        <path id="Path_3493" data-name="Path 3493"
            d="M104,11.379,120.034,0a7.06,7.06,0,0,1,1.034,2.586c.6,3.216-.517,8.793-.517,8.793Z"
            transform="translate(-26.954)" fill="#6e4439" />
        <path id="Path_3494" data-name="Path 3494"
            d="M97.828,0s-5.722,0-7.241,2.586h0S88,2.565,88,5.69a41.361,41.361,0,0,0,1.034,5.69S100.047,6.487,105.069,0a29.966,29.966,0,0,0-6.724,1.034Z"
            transform="translate(-11.988)" fill="#5e342e" />
        <path id="Path_3495" data-name="Path 3495"
            d="M112.034,107.621v-1.034A2.586,2.586,0,0,0,109.448,104h-9.31a2.586,2.586,0,0,0-2.586,2.586v1.034a1.552,1.552,0,1,0,0,3.1v.517a3.1,3.1,0,0,0,1.91,2.865L102.8,115.5a5.172,5.172,0,0,0,1.989.4h0a5.172,5.172,0,0,0,1.989-.4l3.342-1.393a3.1,3.1,0,0,0,1.91-2.865v-.517a1.552,1.552,0,1,0,0-3.1Z"
            transform="translate(-19.471 -97.276)" fill="#fdc88e" />
        <path id="Path_3496" data-name="Path 3496"
            d="M168.517,169.552h0a.519.519,0,0,1-.517-.517v-.517a.519.519,0,0,1,.517-.517h0a.519.519,0,0,1,.517.517v.517A.519.519,0,0,1,168.517,169.552Z"
            transform="translate(-86.816 -157.138)" fill="#623f33" />
        <path id="Path_3497" data-name="Path 3497"
            d="M280.517,169.552h0a.519.519,0,0,1-.517-.517v-.517a.519.519,0,0,1,.517-.517h0a.519.519,0,0,1,.517.517v.517A.519.519,0,0,1,280.517,169.552Z"
            transform="translate(-191.575 -157.138)" fill="#623f33" />
        <path id="Path_3498" data-name="Path 3498"
            d="M194.585,225.564a4.308,4.308,0,0,1-2.36-.621.517.517,0,0,1,.582-.855,3.8,3.8,0,0,0,3.556,0,.517.517,0,0,1,.582.855A4.308,4.308,0,0,1,194.585,225.564Z"
            transform="translate(-109.263 -209.516)" fill="#e2a071" />
        <path id="Path_3499" data-name="Path 3499"
            d="M109.448,105.552V104h-9.31a2.508,2.508,0,0,0-.517.054v0a2.587,2.587,0,0,0-2.069,2.534v1.034a1.552,1.552,0,1,0,0,3.1v.517a3.1,3.1,0,0,0,1.91,2.865L102.8,115.5a5.18,5.18,0,0,0,.5.178,21.587,21.587,0,0,1-3.036-2.643,2.425,2.425,0,0,1-.646-1.657v-5.358A13.95,13.95,0,0,1,109.448,105.552Z"
            transform="translate(-19.471 -97.276)" fill="#f6b47b" />
        <path id="Path_3500" data-name="Path 3500"
            d="M154.858,315.822a1.018,1.018,0,0,0-1.183.4,5.167,5.167,0,0,1-8.732,0,1.018,1.018,0,0,0-1.183-.4l-.167.056a6.209,6.209,0,0,0,11.432,0Z"
            transform="translate(-63.987 -295.352)" fill="#8abe69" />
        <path id="Path_3501" data-name="Path 3501"
            d="M82.219,324.234l-1.456-9.224a.517.517,0,0,0-.674-.41l-3.148,1.049a1.552,1.552,0,0,0-1.049,1.28l-.7,5.561a1.552,1.552,0,0,0,1.54,1.744Z"
            transform="translate(0 -294.234)" fill="#43a0c5" />
        <path id="Path_3502" data-name="Path 3502"
            d="M280,324.234l1.456-9.224a.517.517,0,0,1,.674-.41l3.148,1.049a1.552,1.552,0,0,1,1.049,1.28l.7,5.561a1.552,1.552,0,0,1-1.54,1.744Z"
            transform="translate(-191.575 -294.234)" fill="#43a0c5" />
        <path id="Path_3503" data-name="Path 3503"
            d="M323.43,339.372a1.548,1.548,0,0,1,.312.752l.7,5.561a1.552,1.552,0,0,1-1.54,1.744H320v-2.972a3.1,3.1,0,0,1,.768-2.044Z"
            transform="translate(-228.988 -317.43)" fill="#2c8cb3" />
        <path id="Path_3504" data-name="Path 3504" d="M361.807,374.249a2.06,2.06,0,0,1-.5-3.964Z"
            transform="translate(-266.402 -346.344)" fill="#ffc84a" />
        <path id="Path_3505" data-name="Path 3505"
            d="M245.987,102a5.965,5.965,0,0,1,4.268,2.716,8.1,8.1,0,0,0-.214-2.716Z"
            transform="translate(-159.761 -95.405)" fill="#6e4439" />
        <path id="Path_3506" data-name="Path 3506"
            d="M76.2,339.372a1.548,1.548,0,0,0-.312.752l-.7,5.561a1.552,1.552,0,0,0,1.54,1.744h2.9v-2.972a3.1,3.1,0,0,0-.768-2.044Z"
            transform="translate(0 -317.43)" fill="#2c8cb3" />
    </g>
</svg>
