<svg xmlns="http://www.w3.org/2000/svg" width="24" height="30" viewBox="0 0 24 30">
    <g id="ic_book" transform="translate(-51.2)">
        <path id="Path_3507" data-name="Path 3507"
            d="M51.2,363.4a4,4,0,0,0,4,4h16l1-.244,1,.244h1a1,1,0,0,0,1-1v-2l-.612-1.453.612-2.319V358.4H51.381Z"
            transform="translate(0 -337.4)" fill="#7784ff" />
        <path id="Path_3508" data-name="Path 3508"
            d="M106.334,397.532a1,1,0,0,0,1-1v-4a1,1,0,0,1-1,1h-19a2,2,0,0,0,0,4Z"
            transform="translate(-32.134 -369.532)" fill="#f3f5f9" />
        <g id="Group_1682" data-name="Group 1682" transform="translate(72.812 23)">
            <g id="Group_1681" data-name="Group 1681" transform="translate(0)">
                <g id="Group_1680" data-name="Group 1680">
                    <path id="Path_3509" data-name="Path 3509"
                        d="M421.426,393.532h-.388v3a1,1,0,0,1-1,1h1.388a1,1,0,0,0,1-1v-4A1,1,0,0,1,421.426,393.532Z"
                        transform="translate(-420.038 -392.532)" fill="#e1e6f0" />
                </g>
            </g>
        </g>
        <path id="Path_3510" data-name="Path 3510"
            d="M139.68,447.586l-.793-.793a.5.5,0,0,0-.707,0l-.793.793a.5.5,0,0,1-.854-.354v-3.5h4v3.5A.5.5,0,0,1,139.68,447.586Z"
            transform="translate(-80.334 -417.733)" fill="#f25a3c" />
        <path id="Path_3511" data-name="Path 3511"
            d="M421.038,358.4v8a1,1,0,0,1-1,1h1.388a1,1,0,0,0,1-1v-2l-.612-1.453.612-2.319V358.4Z"
            transform="translate(-347.226 -337.4)" fill="#6270f0" />
        <path id="Path_3512" data-name="Path 3512"
            d="M437.105,397.539h.388a1,1,0,0,0,1-1v-4a1,1,0,0,1-1,1h-.388Z"
            transform="translate(-363.293 -369.539)" fill="#e1e6f0" />
        <path id="Path_3513" data-name="Path 3513"
            d="M181.106,443.733v3.318l.535.535a.5.5,0,0,0,.854-.354v-3.5Z"
            transform="translate(-122.294 -417.733)" fill="#e63a3a" />
        <path id="Path_3514" data-name="Path 3514"
            d="M107.333,436.007H85.385a1.993,1.993,0,0,0,0,.905h21.948Z"
            transform="translate(-32.133 -410.46)" fill="#cfd7e6" />
        <path id="Path_3515" data-name="Path 3515" d="M394.533,379.378h-2v-8l1-.254,1,.254Z"
            transform="translate(-321.333 -349.378)" fill="#ffbe40" />
        <path id="Path_3516" data-name="Path 3516"
            d="M74.2,0h-1l-.94.166L71.2,0h-16a4,4,0,0,0-4,4V26a4,4,0,0,1,4-4h19a1,1,0,0,0,1-1V1a1,1,0,0,0-1-1Z"
            transform="translate(0 0)" fill="#8db5ff" />
        <path id="Path_3517" data-name="Path 3517"
            d="M195.264,54.2H188.2a.469.469,0,0,1-.469-.469V51.669a.469.469,0,0,1,.469-.469h7.062a.469.469,0,0,1,.469.469v2.062A.469.469,0,0,1,195.264,54.2Z"
            transform="translate(-128.533 -48.2)" fill="#f3f5f9" />
        <path id="Path_3518" data-name="Path 3518"
            d="M293.733,51.2h-1.4a.483.483,0,0,1,.483.483v2.034a.483.483,0,0,1-.483.483h1.4a.469.469,0,0,0,.469-.469V51.669A.469.469,0,0,0,293.733,51.2Z"
            transform="translate(-227.002 -48.2)" fill="#e1e6f0" />
        <path id="Path_3519" data-name="Path 3519"
            d="M421.426,0h-1.388a1,1,0,0,1,1,1V21a1,1,0,0,1-1,1h1.388a1,1,0,0,0,1-1V1a1,1,0,0,0-1-1Z"
            transform="translate(-347.226)" fill="#7784ff" />
        <path id="Path_3520" data-name="Path 3520"
            d="M111.74.027v22a4.038,4.038,0,0,1,.453-.026h.453V0h-.453a4.038,4.038,0,0,0-.453.026Z"
            transform="translate(-56.993 -0.001)" fill="#7784ff" />
        <path id="Path_3521" data-name="Path 3521" d="M392.533,0h2V22h-2Z"
            transform="translate(-321.333 -0.001)" fill="#ffdf40" />
    </g>
</svg>
