<svg xmlns="http://www.w3.org/2000/svg" width="30" height="30" viewBox="0 0 30 30">
    <g id="ic_home" transform="translate(0 -0.001)">
        <path id="Path_3485" data-name="Path 3485"
            d="M357.156,32h-4.687a.469.469,0,0,0-.469.469v9.375a.469.469,0,0,0,.469.469h4.687a.469.469,0,0,0,.469-.469V32.469A.469.469,0,0,0,357.156,32Z"
            transform="translate(-331.375 -30.124)" fill="#deded9" />
        <path id="Path_3486" data-name="Path 3486"
            d="M352,51.881V60.56a.469.469,0,0,0,.469.469h4.687a.469.469,0,0,0,.469-.469V56.633Z"
            transform="translate(-331.375 -48.84)" fill="#cdcdc7" />
        <path id="Path_3487" data-name="Path 3487"
            d="M86.339,33.022,75.558,24.116a.469.469,0,0,0-.615,0L64.161,33.022a.469.469,0,0,0-.161.354v18.75a.469.469,0,0,0,.469.469H86.031a.469.469,0,0,0,.469-.469V33.375A.469.469,0,0,0,86.339,33.022Z"
            transform="translate(-60.25 -22.593)" fill="#baa9da" />
        <path id="Path_3488" data-name="Path 3488"
            d="M29.833,12.3,15.4.2A.5.5,0,0,0,14.6.2L.168,12.3a.469.469,0,0,0-.1.6l1.406,1.875a.473.473,0,0,0,.707.115L15,4.378l12.82,10.51a.473.473,0,0,0,.707-.115L29.933,12.9A.469.469,0,0,0,29.833,12.3Z"
            transform="translate(0 0)" fill="#fdc572" />
        <path id="Path_3489" data-name="Path 3489"
            d="M165.57,318.777a5.671,5.671,0,0,0-5.57,5.7V330.1h11.25v-5.7A5.631,5.631,0,0,0,165.57,318.777Z"
            transform="translate(-150.625 -300.097)" fill="#7b5fb2" />
    </g>
</svg>
