<svg xmlns="http://www.w3.org/2000/svg" width="18.805" height="18.807" viewBox="0 0 18.805 18.807">
  <path id="ic_home" d="M18.3,8.18h0L10.627.507a1.731,1.731,0,0,0-2.449,0L.51,8.174.5,8.182a1.731,1.731,0,0,0,1.152,2.95l.053,0h.306V16.78A2.029,2.029,0,0,0,4.04,18.806h3a.551.551,0,0,0,.551-.551V13.829a.925.925,0,0,1,.924-.924h1.77a.925.925,0,0,1,.924.924v4.426a.551.551,0,0,0,.551.551h3a2.029,2.029,0,0,0,2.026-2.026V11.134h.284A1.732,1.732,0,0,0,18.3,8.18Zm0,0" transform="translate(0 0.001)" fill="#ffb200"/>
</svg>
