<svg id="ic_listening" xmlns="http://www.w3.org/2000/svg" width="50.903" height="50.903" viewBox="0 0 50.903 50.903">
  <path id="Path_182" data-name="Path 182" d="M176,107.572a2.121,2.121,0,1,0,4.242,0V82.121a2.121,2.121,0,1,0-4.242,0Zm0,0" transform="translate(-152.67 -69.395)" fill="#fff"/>
  <path id="Path_183" data-name="Path 183" d="M2.121,96A2.122,2.122,0,0,0,0,98.121v21.21a2.121,2.121,0,1,0,4.242,0V98.121A2.122,2.122,0,0,0,2.121,96Zm0,0" transform="translate(0 -83.274)" fill="#fff"/>
  <path id="Path_184" data-name="Path 184" d="M124.242,131.089V114.121a2.121,2.121,0,0,0-4.242,0v16.968a2.121,2.121,0,0,0,4.242,0Zm0,0" transform="translate(-104.093 -97.153)" fill="#fff"/>
  <path id="Path_185" data-name="Path 185" d="M66.121,156.726a2.122,2.122,0,0,0,2.121-2.121v-8.484a2.121,2.121,0,0,0-4.242,0V154.6A2.122,2.122,0,0,0,66.121,156.726Zm0,0" transform="translate(-55.516 -124.911)" fill="#fff"/>
  <path id="Path_186" data-name="Path 186" d="M236.242,131.089V114.121a2.121,2.121,0,0,0-4.242,0v16.968a2.121,2.121,0,0,0,4.242,0Zm0,0" transform="translate(-201.246 -97.153)" fill="#fff"/>
  <path id="Path_187" data-name="Path 187" d="M354.121,96A2.122,2.122,0,0,0,352,98.121v21.21a2.121,2.121,0,1,0,4.242,0V98.121A2.122,2.122,0,0,0,354.121,96Zm0,0" transform="translate(-305.339 -83.274)" fill="#fff"/>
  <path id="Path_188" data-name="Path 188" d="M290.121,144A2.122,2.122,0,0,0,288,146.121V154.6a2.121,2.121,0,1,0,4.242,0v-8.484A2.122,2.122,0,0,0,290.121,144Zm0,0" transform="translate(-249.823 -124.911)" fill="#fff"/>
  <path id="Path_189" data-name="Path 189" d="M176,340.242a2.121,2.121,0,0,0,4.242,0v-2.121a2.121,2.121,0,0,0-4.242,0Zm0,0" transform="translate(-152.67 -291.46)" fill="#fff"/>
  <path id="Path_190" data-name="Path 190" d="M178.121,6.363a2.122,2.122,0,0,0,2.121-2.121V2.121a2.121,2.121,0,1,0-4.242,0V4.242A2.122,2.122,0,0,0,178.121,6.363Zm0,0" transform="translate(-152.67)" fill="#fff"/>
</svg>
