<svg xmlns="http://www.w3.org/2000/svg" width="17.193" height="18.807" viewBox="0 0 17.193 18.807">
  <path id="ic_lang_si" d="M1.923-5.484Q1.5-5.7,1.5-6.516A1.9,1.9,0,0,1,1.632-7.2q.714-2.01,3.677-2.01A3.494,3.494,0,0,1,8.695-7.547a3.7,3.7,0,0,1,3.412-1.666,4.363,4.363,0,0,1,2.328.586,2.484,2.484,0,0,1,1.217,1.89,2.387,2.387,0,0,1-.317,1.73H14.99A5.191,5.191,0,0,1,17.053-.7,5.514,5.514,0,0,1,15.7,3.033a4.278,4.278,0,0,1-3.439,1.614,4.07,4.07,0,0,1-3.518-1.64q-1.058,1.64-3.756,1.64A4.208,4.208,0,0,1,1.7,3.121,5.141,5.141,0,0,1,.389-.448,4.2,4.2,0,0,1,1.9-3.9H-.14V-5.484Zm5.766,0A2.156,2.156,0,0,0,6.711-7.2a2.249,2.249,0,0,0-1.3-.4,2.115,2.115,0,0,0-1.005.238,1.348,1.348,0,0,1,.529.926,1.433,1.433,0,0,1-.238.952Zm1.984,0h3.65a1.144,1.144,0,0,0,.212-.873q-.132-1.27-1.772-1.217a2,2,0,0,0-1.468.635A2.275,2.275,0,0,0,9.673-5.484ZM5.23-3.95A2.787,2.787,0,0,0,3.3-3.209a2.449,2.449,0,0,0-.846,1.825A2.457,2.457,0,0,0,3.219.52a2.775,2.775,0,0,0,2.01.767A4,4,0,0,0,6.975.943a1.39,1.39,0,0,0,.9-1.27V-1.887H9.594V-.379a1.407,1.407,0,0,0,.873,1.3,3.758,3.758,0,0,0,1.746.37A2.767,2.767,0,0,0,14.17.454a2.465,2.465,0,0,0,.82-1.971A2.325,2.325,0,0,0,14.2-3.262a2.677,2.677,0,0,0-1.852-.688ZM4.2-7.838H2.717q-1.3-.423-1.3-2.328a2.424,2.424,0,0,1,.212-1.084,4.65,4.65,0,0,1,2.883-2.381,13.607,13.607,0,0,1,4.232-.529q5.925,0,7.142,2.91a2.645,2.645,0,0,1,.212,1.084,2.234,2.234,0,0,1-1.3,2.328H13.244a2.139,2.139,0,0,0,1.111-1.8,1.172,1.172,0,0,0-.053-.37q-.238-.82-1.984-1.27a15.116,15.116,0,0,0-3.571-.37,13.907,13.907,0,0,0-3.518.4q-1.772.45-2.01,1.243a1.271,1.271,0,0,0-.053.4A1.98,1.98,0,0,0,4.2-7.838Z" transform="translate(0.14 14.16)" fill="#ffb200"/>
</svg>
