<svg id="ic_microphone" xmlns="http://www.w3.org/2000/svg" width="16.356" height="23.626" viewBox="0 0 16.356 23.626">
  <g id="Group_53" data-name="Group 53" transform="translate(0 0)">
    <path id="Path_38" data-name="Path 38" d="M150.722,16.356a4.556,4.556,0,0,0,4.543-4.543V4.543a4.374,4.374,0,0,0-1.334-3.209,4.524,4.524,0,0,0-6.417,0,4.375,4.375,0,0,0-1.335,3.209v7.269a4.556,4.556,0,0,0,4.543,4.543Z" transform="translate(-142.544)" fill="#fff"/>
    <path id="Path_39" data-name="Path 39" d="M89.173,182.994a.908.908,0,0,0-1.547.639v1.817a6.361,6.361,0,0,1-12.721,0v-1.817a.909.909,0,0,0-1.817,0v1.817a8.177,8.177,0,0,0,7.269,8.121v1.874H76.722a.909.909,0,0,0,0,1.818h9.086a.909.909,0,0,0,0-1.818H82.174v-1.874a8.178,8.178,0,0,0,7.269-8.121v-1.817A.873.873,0,0,0,89.173,182.994Z" transform="translate(-73.087 -173.637)" fill="#fff"/>
  </g>
</svg>
