<svg xmlns="http://www.w3.org/2000/svg" width="29.938" height="30" viewBox="0 0 29.938 30">
    <g id="ic_music" transform="translate(-0.529 0)">
        <g id="Group_1683" data-name="Group 1683" transform="translate(11.464 14.202)">
            <path id="Path_3522" data-name="Path 3522"
                d="M205.711,243.37l-11.416-.978a.484.484,0,0,0-.518.4l-1.681,9.921a.485.485,0,0,1-.581.391,3.935,3.935,0,0,0-1.763.044c-1.742.434-2.88,1.887-2.542,3.244s2.025,2.106,3.767,1.672a3.3,3.3,0,0,0,2.57-2.4l1.649-9.729a.484.484,0,0,1,.518-.4l7.573.649a.484.484,0,0,1,.435.563l-.991,5.846a.484.484,0,0,1-.582.391,3.935,3.935,0,0,0-1.766.043c-1.742.434-2.88,1.887-2.542,3.244s2.025,2.106,3.767,1.672a3.907,3.907,0,0,0,1.666-.866,3.12,3.12,0,0,0,.548-.64,2.654,2.654,0,0,0,.193-.361,4.752,4.752,0,0,0,.272-1.15l1.858-10.991A.484.484,0,0,0,205.711,243.37Z"
                transform="translate(-187.15 -242.391)" fill="#e94444" />
            <path id="Path_3523" data-name="Path 3523"
                d="M412.8,258.567l-.026.152-1.785,10.559a6.281,6.281,0,0,1-.3,1.4,2.63,2.63,0,0,1-.188.363,3.1,3.1,0,0,1-.552.658,3.9,3.9,0,0,1-1.682.88,3.975,3.975,0,0,1-1.6.075q.2-.029.4-.079a3.97,3.97,0,0,0,1.692-.878,3.164,3.164,0,0,0,.561-.656,4.414,4.414,0,0,0,.5-1.725l.339-2,.43-2.545.443-2.618.376-2.225.23-1.364c.012-.071.024-.143.036-.214a.489.489,0,0,0-.115-.4l.806.069a.483.483,0,0,1,.436.562Z"
                transform="translate(-393.805 -257.025)" fill="#d83131" />
        </g>
        <g id="Group_1687" data-name="Group 1687" transform="translate(4.858 0)">
            <g id="Group_1684" data-name="Group 1684" transform="translate(0 20.212)">
                <path id="Path_3524" data-name="Path 3524"
                    d="M77.145,345.057a4.679,4.679,0,0,1-2.645,3.084.159.159,0,0,0,0,.3,4.679,4.679,0,0,1,2.645,3.084.159.159,0,0,0,.3,0,4.679,4.679,0,0,1,2.645-3.084.159.159,0,0,0,0-.3,4.679,4.679,0,0,1-2.645-3.084A.159.159,0,0,0,77.145,345.057Z"
                    transform="translate(-74.399 -344.946)" fill="#fdb441" />
                <path id="Path_3525" data-name="Path 3525"
                    d="M113.43,348.439a4.677,4.677,0,0,0-2.644,3.084.159.159,0,0,1-.3,0,5.958,5.958,0,0,0-.671-1.445,2.633,2.633,0,0,1,1.518-1.639.159.159,0,0,0,0-.3,2.636,2.636,0,0,1-1.518-1.64,5.958,5.958,0,0,0,.671-1.444.159.159,0,0,1,.3,0,4.68,4.68,0,0,0,2.644,3.084A.159.159,0,0,1,113.43,348.439Z"
                    transform="translate(-107.736 -344.949)" fill="#fea613" />
            </g>
            <g id="Group_1685" data-name="Group 1685" transform="translate(13.814 5.663)">
                <path id="Path_3526" data-name="Path 3526"
                    d="M312.161,96.724a3.42,3.42,0,0,1-1.933,2.254.116.116,0,0,0,0,.217,3.42,3.42,0,0,1,1.933,2.254.116.116,0,0,0,.221,0,3.42,3.42,0,0,1,1.933-2.254.116.116,0,0,0,0-.217,3.42,3.42,0,0,1-1.933-2.254A.116.116,0,0,0,312.161,96.724Z"
                    transform="translate(-310.155 -96.643)" fill="#fdb441" />
                <path id="Path_3527" data-name="Path 3527"
                    d="M338.682,99.2a3.418,3.418,0,0,0-1.932,2.254.116.116,0,0,1-.222,0,4.355,4.355,0,0,0-.49-1.056c.224-.477.193-.947.866-1.2a.116.116,0,0,0,0-.216c-.673-.252-.642-.721-.866-1.2a4.353,4.353,0,0,0,.49-1.055.116.116,0,0,1,.222,0,3.42,3.42,0,0,0,1.932,2.254A.116.116,0,0,1,338.682,99.2Z"
                    transform="translate(-334.52 -96.644)" fill="#fea613" />
            </g>
            <g id="Group_1686" data-name="Group 1686" transform="translate(19.874 0)">
                <path id="Path_3528" data-name="Path 3528"
                    d="M416.116.1a4.309,4.309,0,0,1-2.435,2.84.146.146,0,0,0,0,.273,4.309,4.309,0,0,1,2.435,2.84.146.146,0,0,0,.279,0,4.309,4.309,0,0,1,2.435-2.84.146.146,0,0,0,0-.273A4.309,4.309,0,0,1,416.4.1a.146.146,0,0,0-.279,0Z"
                    transform="translate(-413.587 0)" fill="#fdb441" />
                <path id="Path_3529" data-name="Path 3529"
                    d="M449.531,3.216a4.307,4.307,0,0,0-2.435,2.84.147.147,0,0,1-.279,0,5.488,5.488,0,0,0-.618-1.33c.282-.6.243-1.193,1.091-1.509a.146.146,0,0,0,0-.273c-.848-.317-.809-.909-1.091-1.51A5.486,5.486,0,0,0,446.817.1a.147.147,0,0,1,.279,0,4.31,4.31,0,0,0,2.435,2.84.146.146,0,0,1,0,.273Z"
                    transform="translate(-444.288 -0.001)" fill="#fea613" />
            </g>
        </g>
        <g id="Group_1688" data-name="Group 1688" transform="translate(0.529 0)">
            <path id="Path_3530" data-name="Path 3530"
                d="M14.226.014,3.1,2.732a.483.483,0,0,0-.363.545l1.574,9.938a.485.485,0,0,1-.426.556,3.935,3.935,0,0,0-1.656.6C.712,15.344.1,17.084.851,18.262s2.591,1.349,4.1.381a3.3,3.3,0,0,0,1.669-3.1L5.081,5.8a.483.483,0,0,1,.363-.545l7.384-1.8a.483.483,0,0,1,.592.394L14.347,9.7a.485.485,0,0,1-.426.556,3.936,3.936,0,0,0-1.66.6c-1.512.968-2.127,2.708-1.373,3.886s2.591,1.349,4.1.381q.079-.05.155-.1a3.813,3.813,0,0,0,1.245-1.435,2.816,2.816,0,0,0,.252-1.692L16.4,10.372,14.818.408a.483.483,0,0,0-.592-.394Z"
                transform="translate(-0.529 0)" fill="#e94444" />
            <path id="Path_3531" data-name="Path 3531"
                d="M222.259.409l1.82,11.459a3.268,3.268,0,0,1-1.441,3.124q-.1.073-.206.141a3.975,3.975,0,0,1-1.489.581q.178-.091.352-.2.14-.089.272-.189a3.307,3.307,0,0,0,1.394-3.17l-.254-1.6L222.333,8.2l-.42-2.643-.392-2.465-.289-1.821-.113-.711a.489.489,0,0,0-.238-.347l.785-.192a.483.483,0,0,1,.592.394Z"
                transform="translate(-207.97 -0.002)" fill="#d83131" />
        </g>
    </g>
</svg>
