<svg xmlns="http://www.w3.org/2000/svg" width="17.163" height="23.73" viewBox="0 0 17.163 23.73">
  <g id="ic_padlock" transform="translate(-80.994)">
    <g id="Group_1588" data-name="Group 1588" transform="translate(80.994)">
      <path id="Path_3284" data-name="Path 3284" d="M89.576,0a6.947,6.947,0,0,0-6.94,6.94V10.9a.186.186,0,0,1-.1.135c-.375.125-.68.234-.959.341a.96.96,0,0,0-.584.858v9.107a.967.967,0,0,0,.58.858,21.722,21.722,0,0,0,16,0,.967.967,0,0,0,.58-.858V12.237a.96.96,0,0,0-.584-.858c-.279-.108-.584-.216-.959-.341a.187.187,0,0,1-.1-.135V6.939A6.948,6.948,0,0,0,89.576,0Zm-1.89,15.011a1.89,1.89,0,1,1,3.78,0,1.862,1.862,0,0,1-.945,1.6v3.125a.945.945,0,0,1-1.89,0V16.611A1.862,1.862,0,0,1,87.685,15.011Zm6.444-8.071v3.42a21.662,21.662,0,0,0-9.107,0V6.939a4.553,4.553,0,0,1,9.107,0Z" transform="translate(-80.994)" fill="#fff"/>
    </g>
  </g>
</svg>
