<svg id="ic_question" xmlns="http://www.w3.org/2000/svg" width="13.578" height="18.807" viewBox="0 0 13.578 18.807">
  <path id="Path_2009" data-name="Path 2009" d="M137.167,274.074h-3.526a.6.6,0,0,0-.588.588v3.527a.6.6,0,0,0,.588.588h3.526a.6.6,0,0,0,.588-.588v-3.527a.6.6,0,0,0-.588-.588Z" transform="translate(-128.82 -259.969)" fill="#ffb200"/>
  <path id="Path_2010" data-name="Path 2010" d="M63.779,3.548a6.092,6.092,0,0,0-1.558-1.874A7.965,7.965,0,0,0,60.076.455,6.585,6.585,0,0,0,57.711,0a7.5,7.5,0,0,0-6.817,3.908.58.58,0,0,0-.081.411.572.572,0,0,0,.228.367l2.41,1.837a.7.7,0,0,0,.367.117.571.571,0,0,0,.456-.235,10.022,10.022,0,0,1,1.572-1.69,2.778,2.778,0,0,1,1.587-.426,2.72,2.72,0,0,1,1.58.47,1.328,1.328,0,0,1,.683,1.087,1.65,1.65,0,0,1-.367,1.117,3.623,3.623,0,0,1-1.234.823,6.2,6.2,0,0,0-2.1,1.594,3.423,3.423,0,0,0-.955,2.3v.661a1.1,1.1,0,0,0,.154.551.442.442,0,0,0,.375.272h3.526a.511.511,0,0,0,.411-.228.769.769,0,0,0,.176-.477,2,2,0,0,1,.4-.984,2.881,2.881,0,0,1,1.007-.955q.573-.323.9-.521a7.443,7.443,0,0,0,.845-.639,4.226,4.226,0,0,0,.808-.874,4.962,4.962,0,0,0,.742-2.608A4.814,4.814,0,0,0,63.779,3.548Z" transform="translate(-50.804 0)" fill="#ffb200"/>
</svg>
