<svg xmlns="http://www.w3.org/2000/svg" width="27.901" height="30" viewBox="0 0 27.901 30">
    <g id="ic_settings" transform="translate(-17.912 0)">
        <path id="Path_3532" data-name="Path 3532"
            d="M45.051,18.769l-.691-.53a4.083,4.083,0,0,1,0-6.479l.691-.53a1.948,1.948,0,0,0,.5-2.52l-1.4-2.422a1.948,1.948,0,0,0-2.433-.826l-.8.334a4.083,4.083,0,0,1-5.611-3.24l-.113-.864A1.948,1.948,0,0,0,33.261,0h-2.8a1.948,1.948,0,0,0-1.931,1.694l-.113.864A4.083,4.083,0,0,1,22.809,5.8L22,5.463a1.948,1.948,0,0,0-2.433.826l-1.4,2.422a1.948,1.948,0,0,0,.5,2.52l.691.53a4.083,4.083,0,0,1,0,6.479l-.691.53a1.948,1.948,0,0,0-.5,2.52l1.4,2.422A1.948,1.948,0,0,0,22,24.536l.8-.334a4.083,4.083,0,0,1,5.611,3.24l.113.864A1.948,1.948,0,0,0,30.465,30h2.8a1.948,1.948,0,0,0,1.931-1.694l.113-.864a4.083,4.083,0,0,1,5.611-3.24l.8.334a1.948,1.948,0,0,0,2.433-.826l1.4-2.422A1.948,1.948,0,0,0,45.051,18.769Zm-13.207-.1A3.666,3.666,0,1,1,35.51,15,3.665,3.665,0,0,1,31.844,18.666Z"
            transform="translate(-0.001)" fill="#544f57" />
        <g id="Group_1689" data-name="Group 1689" transform="translate(17.912 0)">
            <path id="Path_3533" data-name="Path 3533"
                d="M149.273,2.557l.114-.863A1.948,1.948,0,0,1,151.318,0H149.43A1.948,1.948,0,0,0,147.5,1.694l-.114.863A4.079,4.079,0,0,1,144.282,6,4.084,4.084,0,0,0,149.273,2.557Z"
                transform="translate(-136.878)" fill="#454045" />
            <path id="Path_3534" data-name="Path 3534"
                d="M21.459,109.1l-1.4-2.422a1.948,1.948,0,0,1,.5-2.52,4.751,4.751,0,0,0,0-7.539,1.948,1.948,0,0,1-.5-2.52l1.4-2.422a1.941,1.941,0,0,1,.757-.738L22,90.857a1.948,1.948,0,0,0-2.433.825l-1.4,2.422a1.948,1.948,0,0,0,.5,2.52l.691.53a4.083,4.083,0,0,1,0,6.479l-.691.53a1.948,1.948,0,0,0-.5,2.52l1.4,2.422A1.948,1.948,0,0,0,22,109.93l.212-.088A1.94,1.94,0,0,1,21.459,109.1Z"
                transform="translate(-17.912 -85.394)" fill="#454045" />
            <path id="Path_3535" data-name="Path 3535"
                d="M149.385,412.13l-.114-.863a4.084,4.084,0,0,0-4.991-3.441,4.079,4.079,0,0,1,3.1,3.441l.114.863a1.948,1.948,0,0,0,1.931,1.694h1.888A1.948,1.948,0,0,1,149.385,412.13Z"
                transform="translate(-136.877 -383.824)" fill="#454045" />
        </g>
        <path id="Path_3536" data-name="Path 3536"
            d="M109.912,101.153a9.073,9.073,0,1,0,9.073,9.073A9.073,9.073,0,0,0,109.912,101.153Zm0,12.739a3.666,3.666,0,1,1,3.666-3.666A3.665,3.665,0,0,1,109.912,113.892Z"
            transform="translate(-78.069 -95.226)" fill="#665e66" />
    </g>
</svg>
