<svg xmlns="http://www.w3.org/2000/svg" width="50.495" height="43.96" viewBox="0 0 50.495 43.96">
    <g id="rainbow" transform="translate(0 -33.133)">
        <g id="Group_1678" data-name="Group 1678" transform="translate(0.752 45.31)">
            <g id="Group_1677" data-name="Group 1677">
                <path id="Path_3467" data-name="Path 3467"
                    d="M99.062,216.023a19.54,19.54,0,0,0-38.562,0v1.025h8.738V212.9a11.35,11.35,0,0,1,21.086,0v4.145h8.738Z"
                    transform="translate(-55.286 -195.41)" fill="#ffe07d" />
                <path id="Path_3468" data-name="Path 3468"
                    d="M69.839,179.1a22.874,22.874,0,0,0-45.742,0h5.134v-2.542a17.976,17.976,0,0,1,35.474,0V179.1Z"
                    transform="translate(-22.473 -156.6)" fill="#ff8086" />
                <path id="Path_3469" data-name="Path 3469"
                    d="M245.649,156.6q-.57,0-1.133.028A22.875,22.875,0,0,1,266.254,179.1l-2.869,0h0l5.134,0A22.874,22.874,0,0,0,245.649,156.6Z"
                    transform="translate(-221.153 -156.6)" fill="#e5646e" />
                <path id="Path_3470" data-name="Path 3470"
                    d="M157.135,264.233a13.076,13.076,0,0,0-24.293,0v2.55h4.3a8.172,8.172,0,0,1,15.689,0h4.3Z"
                    transform="translate(-120.493 -246.197)" fill="#b3e59f" />
                <path id="Path_3471" data-name="Path 3471"
                    d="M276.768,351.9a4.085,4.085,0,1,1,.381-8.152.782.782,0,0,0,.8-.532,6.509,6.509,0,0,1,11.377-1.76,1.581,1.581,0,0,0,1.281.641h.031a4.9,4.9,0,0,1,4.9,4.985,4.954,4.954,0,0,1-4.982,4.818H276.768Z"
                    transform="translate(-246.554 -320.861)" fill="#ecf4ff" />
                <path id="Path_3472" data-name="Path 3472"
                    d="M26.406,351.9a4.085,4.085,0,1,0-.381-8.152.782.782,0,0,1-.8-.532,6.509,6.509,0,0,0-11.377-1.76,1.581,1.581,0,0,1-1.281.641H12.53a4.9,4.9,0,0,0-4.9,4.985,4.954,4.954,0,0,0,4.982,4.818H26.406Z"
                    transform="translate(-7.629 -320.861)" fill="#ecf4ff" />
                <g id="Group_1676" data-name="Group 1676" transform="translate(4.901 17.973)">
                    <path id="Path_3473" data-name="Path 3473"
                        d="M124.614,347.51a4.083,4.083,0,0,0-3.636-3.753,4.131,4.131,0,0,0-.806,0,.782.782,0,0,1-.8-.532,6.514,6.514,0,0,0-7.29-4.288,6.517,6.517,0,0,1,5.022,4.288.782.782,0,0,0,.8.532,4.138,4.138,0,0,1,.806,0,4.086,4.086,0,0,1-.425,8.148h2.268A4.1,4.1,0,0,0,124.614,347.51Z"
                        transform="translate(-106.677 -338.834)" fill="#ddeafb" />
                    <path id="Path_3474" data-name="Path 3474"
                        d="M384.591,342.1h-.031a1.581,1.581,0,0,1-1.281-.641,6.507,6.507,0,0,0-6.356-2.527,6.507,6.507,0,0,1,4.087,2.527,1.581,1.581,0,0,0,1.281.641h.031a4.9,4.9,0,0,1,4.9,4.985,4.954,4.954,0,0,1-4.982,4.818h2.268a4.954,4.954,0,0,0,4.982-4.818A4.9,4.9,0,0,0,384.591,342.1Z"
                        transform="translate(-345.403 -338.833)" fill="#ddeafb" />
                    <path id="Path_3475" data-name="Path 3475"
                        d="M403.98,362.972a4.935,4.935,0,0,0-.752-.057H403.2a1.58,1.58,0,0,1-1.281-.641c-.089-.12-.183-.236-.28-.349a6.33,6.33,0,0,0-4.037,5.892.74.74,0,1,0,1.479,0,4.847,4.847,0,0,1,4.841-4.841C403.94,362.975,403.96,362.973,403.98,362.972Z"
                        transform="translate(-364.04 -359.647)" fill="#ddeafb" />
                    <path id="Path_3476" data-name="Path 3476"
                        d="M61.476,367.218a.74.74,0,1,0,1.479,0,6.459,6.459,0,0,0-3.98-5.958q-.176.2-.336.415a1.581,1.581,0,0,1-1.281.641h-.031a4.978,4.978,0,0,1,4.149,4.9Z"
                        transform="translate(-57.327 -359.048)" fill="#ddeafb" />
                </g>
            </g>
        </g>
        <g id="Group_1679" data-name="Group 1679" transform="translate(0 33.133)">
            <path id="Path_3477" data-name="Path 3477"
                d="M41.933,155.889a23.618,23.618,0,0,0-30.27-2.41.74.74,0,0,0,.859,1.2,21.983,21.983,0,0,1,12.842-4.1,22.241,22.241,0,0,1,22.059,20.329,5.606,5.606,0,0,0-2.466-.569c-.154,0-.309.007-.465.02a7.245,7.245,0,0,0-.7-.906,18.715,18.715,0,0,0-36.856,0,7.252,7.252,0,0,0-.7.906c-.156-.013-.311-.02-.465-.02a5.607,5.607,0,0,0-2.467.569,21.934,21.934,0,0,1,6.908-14.33A.74.74,0,1,0,9.2,155.5a23.535,23.535,0,0,0-7.436,16.515,5.638,5.638,0,0,0,4.008,9.606h.377a.74.74,0,1,0,0-1.479H5.77a4.162,4.162,0,1,1,4.149-4.162.74.74,0,1,0,1.479,0,5.648,5.648,0,0,0-3.6-5.258,5.776,5.776,0,0,1,9.081.068.74.74,0,0,0,.1.139,5.781,5.781,0,0,1,.944,2.076.74.74,0,0,0,.9.549,3.344,3.344,0,1,1,.82,6.588H9.106a.74.74,0,1,0,0,1.479H19.645a4.824,4.824,0,0,0,0-9.649q-.237,0-.472.023a7.242,7.242,0,0,0-.835-1.7,7.432,7.432,0,0,1,14.051,0,7.246,7.246,0,0,0-.835,1.7c-.157-.015-.314-.023-.472-.023a4.824,4.824,0,0,0,0,9.649H44.958a5.638,5.638,0,0,0,4.008-9.606A23.466,23.466,0,0,0,41.933,155.889ZM12.306,167.073a7.239,7.239,0,0,0-3.522.916,17.243,17.243,0,0,1,33.16,0,7.239,7.239,0,0,0-3.522-.916c-.149,0-.3.006-.443.015a13.815,13.815,0,0,0-25.231,0c-.147-.009-.294-.015-.443-.015Zm18.452-1.45a8.911,8.911,0,0,0-10.787,0,9,9,0,0,0-2.711,3.4,7.2,7.2,0,0,0-3-1.68,12.337,12.337,0,0,1,22.2,0,7.2,7.2,0,0,0-3,1.68A9,9,0,0,0,30.758,165.622Zm14.2,14.521H31.082a3.345,3.345,0,1,1,.82-6.588.74.74,0,0,0,.9-.549,5.779,5.779,0,0,1,.943-2.075.744.744,0,0,0,.1-.141,5.776,5.776,0,0,1,9.08-.067,5.648,5.648,0,0,0-3.6,5.258.74.74,0,0,0,1.479,0,4.168,4.168,0,0,1,3.428-4.1v0a4.211,4.211,0,0,1,.721-.064,4.162,4.162,0,1,1,0,8.324Z"
                transform="translate(-0.116 -137.663)" />
            <path id="Path_3478" data-name="Path 3478"
                d="M249.24,72.648a.74.74,0,0,0,.74-.74v-4.9a.74.74,0,1,0-1.479,0v4.9A.74.74,0,0,0,249.24,72.648Z"
                transform="translate(-223.992 -62.999)" />
            <path id="Path_3479" data-name="Path 3479"
                d="M93.666,113.79a.74.74,0,0,0,1.281-.74L92.5,108.805a.74.74,0,0,0-1.281.74Z"
                transform="translate(-82.13 -101.009)" />
            <path id="Path_3480" data-name="Path 3480"
                d="M381.4,114.061a.739.739,0,0,0,1.01-.271l2.451-4.245a.74.74,0,1,0-1.281-.74l-2.451,4.245a.74.74,0,0,0,.271,1.011Z"
                transform="translate(-343.453 -101.009)" />
            <path id="Path_3481" data-name="Path 3481"
                d="M2.374,186.981A2.374,2.374,0,1,0,0,184.607,2.376,2.376,0,0,0,2.374,186.981Zm0-3.268a.894.894,0,1,1-.894.894A.9.9,0,0,1,2.374,183.713Z"
                transform="translate(0 -167.529)" />
            <path id="Path_3482" data-name="Path 3482"
                d="M466.241,186.981a2.374,2.374,0,1,0-2.374-2.374A2.376,2.376,0,0,0,466.241,186.981Zm0-3.268a.894.894,0,1,1-.894.894A.9.9,0,0,1,466.241,183.713Z"
                transform="translate(-418.119 -167.529)" />
            <path id="Path_3483" data-name="Path 3483"
                d="M149.84,36.246h.894v.894a.74.74,0,1,0,1.479,0v-.894h.894a.74.74,0,0,0,0-1.479h-.894v-.894a.74.74,0,1,0-1.479,0v.894h-.894a.74.74,0,1,0,0,1.479Z"
                transform="translate(-134.395 -33.133)" />
            <path id="Path_3484" data-name="Path 3484"
                d="M315.507,36.246h.894v.894a.74.74,0,1,0,1.479,0v-.894h.894a.74.74,0,0,0,0-1.479h-.894v-.894a.74.74,0,1,0-1.479,0v.894h-.894a.74.74,0,0,0,0,1.479Z"
                transform="translate(-283.724 -33.133)" />
        </g>
    </g>
</svg>
