<svg xmlns="http://www.w3.org/2000/svg" width="25.764" height="24.047" viewBox="0 0 25.764 24.047">
    <g id="ic_speaker" transform="translate(0 0)">
        <path id="Path_35" data-name="Path 35"
            d="M14.972,16.075a.856.856,0,0,0-.909.1L5.709,22.862H1.718A1.72,1.72,0,0,0,0,24.579v6.87a1.719,1.719,0,0,0,1.718,1.718H5.709l8.353,6.683a.86.86,0,0,0,.91.1.857.857,0,0,0,.486-.773V16.85A.862.862,0,0,0,14.972,16.075Z"
            transform="translate(0 -15.99)" fill="#fff" />
        <path id="Path_36" data-name="Path 36"
            d="M343.214,122.5a.859.859,0,0,0-1.207,1.223,6.85,6.85,0,0,1,0,9.7.858.858,0,1,0,1.207,1.219,8.567,8.567,0,0,0,0-12.143Z"
            transform="translate(-323.408 -116.549)" fill="#fff" />
        <path id="Path_37" data-name="Path 37"
            d="M388.332,77.374a.859.859,0,1,0-1.211,1.219,10.249,10.249,0,0,1,0,14.546.859.859,0,0,0,1.211,1.219,11.969,11.969,0,0,0,0-16.985Z"
            transform="translate(-366.103 -73.843)" fill="#fff" />
    </g>
</svg>
