<svg xmlns="http://www.w3.org/2000/svg" width="45.058" height="45.058" viewBox="0 0 45.058 45.058">
    <g id="sea-waves" transform="translate(-24 -24)">
        <path id="Path_3446" data-name="Path 3446"
            d="M69.058,46.529a62.976,62.976,0,0,1-.479,7.96C67.25,64.908,63.62,69.058,63.62,69.058H24V64.4c29.606-2.574,24.019-24.878,21.232-32.453a17.869,17.869,0,0,0-1.811-.175s-11.653-.777-10.876,8.545c0,0-6.215-1.554-4.661-7.769s7.769-4.661,7.769-4.661S37.207,24,42.645,24a9.017,9.017,0,0,1,7.769,4.661C54.3,24,69.058,30.215,69.058,46.529Z"
            fill="#3397e8" />
        <g id="Group_1674" data-name="Group 1674" transform="translate(27.635 24)">
            <path id="Path_3447" data-name="Path 3447"
                d="M131.112,231.145s10.1-5.438,10.1-14.76-5.438-6.992-5.438-6.992a4.9,4.9,0,0,0-3.107-5.438,5.318,5.318,0,0,0-6.215,1.554s-6.992-3.107-8.545,3.107,5.438,6.215,5.438,6.215-.686-4.524,3.884-5.438C131.112,208.616,141.988,214.831,131.112,231.145Z"
                transform="translate(-112.218 -186.087)" fill="#a3d4f7" />
            <path id="Path_3448" data-name="Path 3448"
                d="M102.855,46.529a62.975,62.975,0,0,1-.479,7.96C97.417,41.868,91.442,33.778,79.03,31.943a17.868,17.868,0,0,0-1.811-.175s-11.653-.777-10.876,8.545c0,0-6.215-1.554-4.661-7.769s7.769-4.661,7.769-4.661S71,24,76.442,24a9.017,9.017,0,0,1,7.769,4.661C88.095,24,102.855,30.215,102.855,46.529Z"
                transform="translate(-61.432 -24)" fill="#a3d4f7" />
        </g>
    </g>
</svg>
