<svg xmlns="http://www.w3.org/2000/svg" width="68" height="77.455" viewBox="0 0 68 77.455">
    <g id="spider" transform="translate(0.127 9.583)">
        <circle id="Ellipse_74" data-name="Ellipse 74" cx="34" cy="34" r="34"
            transform="translate(-0.127 -0.128)" fill="#ff873d" />
        <path id="Path_3449" data-name="Path 3449"
            d="M254.836,0V39.425h-.42V0c.07,0,.139,0,.21,0S254.765,0,254.836,0Z"
            transform="translate(-220.753 -9.583)" fill="#fff" />
        <g id="Group_1675" data-name="Group 1675" transform="translate(12.805 22.658)">
            <path id="Path_3450" data-name="Path 3450"
                d="M110.609,284.164l-9.1.192-2.7,9.043-.058.07-1.835.707,1.157-1.3,2.581-9.588,9.506-.94.447,1.81v0Z"
                transform="translate(-96.918 -267.647)" fill="#333" />
            <path id="Path_3451" data-name="Path 3451"
                d="M112.946,219.161l-8.673-4.711-2.188,9.373-.058.07-1.656,1.009,1-1.212,2.286-10.36,8.846,4.018.447,1.81v0h0Z"
                transform="translate(-99.914 -207.767)" fill="#333" />
            <path id="Path_3452" data-name="Path 3452"
                d="M146.969,190.307l-6.788-4.042-1.846,8.349-.045.052-1.269.774.765-.928,1.922-9.1,6.922,3.512.342,1.387h0Z"
                transform="translate(-131.709 -183.542)" fill="#333" />
            <path id="Path_3453" data-name="Path 3453"
                d="M178.3,176.03l-5.069-3.854-2.425,4.756-.04.054-1.137.772.684-.928,2.492-5.512,5.186,3.324.307,1.387Z"
                transform="translate(-159.996 -171.319)" fill="#333" />
            <path id="Path_3454" data-name="Path 3454"
                d="M311.694,284.164l9.1.192,2.7,9.043.058.07,1.835.707-1.157-1.3-2.581-9.588-9.506-.94-.447,1.81v0Z"
                transform="translate(-283.249 -267.647)" fill="#333" />
            <path id="Path_3455" data-name="Path 3455"
                d="M316.663,219.161l8.673-4.711,2.188,9.373.058.07,1.656,1.009-1-1.212-2.286-10.36-8.846,4.018-.447,1.81v0h0Z"
                transform="translate(-287.56 -207.767)" fill="#333" />
            <path id="Path_3456" data-name="Path 3456"
                d="M299.829,190.307l6.788-4.042,1.846,8.349.045.052,1.269.774-.765-.928-1.922-9.1-6.922,3.512-.342,1.387h0Z"
                transform="translate(-272.954 -183.542)" fill="#333" />
            <path id="Path_3457" data-name="Path 3457"
                d="M276.9,176.029l5.069-3.854,2.425,4.756.04.054,1.138.772-.684-.928-2.492-5.512-5.186,3.324-.307,1.387Z"
                transform="translate(-253.067 -171.318)" fill="#333" />
        </g>
        <path id="Path_3458" data-name="Path 3458"
            d="M168.882,184.066c.1,0,.192,0,.288.005.186-.6.5-1.579.548-1.421s.221,1,.32,1.478c.081.007.165.016.246.027l.749-1.3.333,1.477c.081.018.161.034.242.054l1.3-1.893-.179,2.188c.067.025.452.19.519.217l.87-.975-.072,1.324c.083.04.165.081.246.123l1.367-.81-.579,1.255.033.02,2.065-.741-.841,1.438,1.4-.452-.709,1.232,1.653-.1-.942.917c.043.052.089.107.13.163l2.345-.543-1.584,1.662.009.016,1.383-.042-1.04.691c.047.1.094.2.137.295l1.427.145-1.156.541c.033.094.065.192.094.288l1.595.177-1.416.369,1.335.595-1.17.448c.013.1.024.206.034.311l2.353.658-2.318.2c0,.06,0,.119,0,.179l1.147.439-1.192.264c-.009.079-.018.157-.027.237l1.219.506-1.373.351-.043.183.821.553-1,.058c-.051.154-.1.306-.163.457l1.957,1.344-2.307-.548c-.038.076-.078.154-.117.228l.975,1.23-1.479-.389c-.067.1-.134.2-.2.293l.8,1.248-1.212-.718c-.085.1-.174.2-.262.3l1.092,1.665-1.629-1.11c-.067.065-.136.128-.2.192l.676,1.414-1.4-.81c-.052.04-.1.079-.157.117l.288,1.656L174.7,202.5l-.128.072.7,2.383-1.626-1.93-.17.072.168,1.763-1.15-1.4-.172.054-.3,1.79-.835-1.51c-.107.022-.215.042-.324.06l-.593,1.6-.658-1.45c-.1.007-.208.011-.313.016l-.561,1.586-.519-1.59c-.083,0-.166-.009-.25-.014l-.566,2-.622-2.141c-.079-.013-.159-.027-.239-.042l-.825,1.7-.472-2.013-1.917,1.662.528-2.19-.114-.051-1.638,1.009.293-1.743-.155-.1-2.268,1.75,1.188-2.564-.081-.07-1.152.595.494-1.221c-.1-.1-.192-.2-.286-.309l-1.358.544.673-1.405-.083-.121-1.43.333.886-1.219-.027-.049-2.519.631,2.089-1.557c-.027-.065-.052-.132-.078-.2l-1.852-.354,1.51-.774-.02-.085-1.327-.452,1.166-.506c-.011-.087-.018-.175-.025-.266l-1.213-.329,1.183-.474c0-.116,0-.232.009-.347l-1.242-.463,1.3-.206c.016-.134.034-.268.056-.4l-.9-.626,1.119-.362c.016-.06.034-.121.052-.181l-2.485-.723,2.781-.108.043-.1-1.349-.986,1.722.212c.031-.058.063-.116.1-.174l-.955-1.024,1.423.279c.042-.061.085-.121.128-.183l-.678-1.2,1.32.407c.076-.085.154-.17.233-.253l-1.827-2.06,2.523,1.394.2-.174-.553-1.309,1.45.638c.112-.076.226-.148.342-.219l-.354-1.262,1.025.877c.065-.034.13-.069.2-.1a5.7,5.7,0,0,1-.134-1.575,5.955,5.955,0,0,1,.81,1.26c.06-.025.117-.051.177-.074l-.206-2.524,1.239,2.161c.1-.029.193-.056.291-.083l-.033-1.7s.676,1.047.987,1.483l.161-.029c.051-.508.248-1.741.248-1.741l.738,1.61.114-.009c.125-.457.476-1.714.544-1.581.056.112.367.989.561,1.539Z"
            transform="translate(-135.038 -158.287)" fill="#1a1a1a" />
        <path id="Path_3459" data-name="Path 3459"
            d="M229.525,315.737l1.371,2.1.373-1.841a12.8,12.8,0,0,1-1.743-.257v0Zm7.011,0-1.371,2.1L234.792,316a12.8,12.8,0,0,0,1.743-.257v0Z"
            transform="translate(-199.158 -273.952)" fill="#f6f6f6" />
        <path id="Path_3460" data-name="Path 3460"
            d="M204.66,224.678c4.329,0,7.837,2.9,7.837,6.476s-3.508,6.476-7.837,6.476-7.837-2.9-7.837-6.476S200.331,224.678,204.66,224.678Z"
            transform="translate(-170.787 -194.953)" fill="#333" />
        <path id="Path_3461" data-name="Path 3461"
            d="M201.881,247.016a3.447,3.447,0,1,1-3.447,3.447A3.446,3.446,0,0,1,201.881,247.016Z"
            transform="translate(-172.185 -214.333)" fill="#dedede" />
        <path id="Path_3462" data-name="Path 3462"
            d="M204.6,251.508a3.021,3.021,0,1,1-3.022,3.02A3.021,3.021,0,0,1,204.6,251.508Z"
            transform="translate(-174.91 -218.23)" fill="#ebebeb" />
        <path id="Path_3463" data-name="Path 3463"
            d="M216.537,277.2a.926.926,0,1,1-.926.926A.925.925,0,0,1,216.537,277.2Z"
            transform="translate(-187.087 -240.524)" fill="#1a1a1a" />
        <path id="Path_3464" data-name="Path 3464"
            d="M264.95,247.016a3.447,3.447,0,1,1-3.447,3.447A3.446,3.446,0,0,1,264.95,247.016Z"
            transform="translate(-226.901 -214.333)" fill="#dedede" />
        <path id="Path_3465" data-name="Path 3465"
            d="M267.666,251.508a3.021,3.021,0,1,1-3.022,3.02A3.021,3.021,0,0,1,267.666,251.508Z"
            transform="translate(-229.626 -218.23)" fill="#ebebeb" />
        <path id="Path_3466" data-name="Path 3466"
            d="M279.619,277.2a.926.926,0,1,1-.926.926A.925.925,0,0,1,279.619,277.2Z"
            transform="translate(-241.814 -240.524)" fill="#1a1a1a" />
    </g>
</svg>
