<svg xmlns="http://www.w3.org/2000/svg" width="50.495" height="45.058" viewBox="0 0 50.495 45.058">
    <g id="duck" transform="translate(0 -0.5)">
        <path id="Path_3437" data-name="Path 3437"
            d="M50.07,309.977c5.175,1.413,8.453,3.507,8.453,5.845,0,4.255-10.862,7.7-24.261,7.7S10,320.077,10,315.822c0-2.294,3.157-4.354,8.168-5.766"
            transform="translate(-9.014 -278.955)" fill="#26ade4" />
        <path id="Path_3438" data-name="Path 3438"
            d="M401.035,99.985l2.875.861s1.047.206,1.078.206a.83.83,0,0,0,.771-1.138l-.824-2.06,1.454-1.617a.83.83,0,0,0-.9-1.229l-3.736.638"
            transform="translate(-361.483 -85.169)" fill="#ff5046" />
        <path id="Path_3439" data-name="Path 3439"
            d="M61.4,26.315,57.908,25.4l-2.38-.828s.306,10.74,4.368,15.909a20.236,20.236,0,0,0,16.128,7.893c7.038.207,13.426-3.8,15.216-9.521,1.551-4.959-1.657-10.023-3.431-12.321a9.635,9.635,0,1,0-14.393.018"
            transform="translate(-50.051 -9.014)" fill="#ffd170" />
        <path id="Path_3440" data-name="Path 3440"
            d="M95.185,240.513a1,1,0,0,1-.193-.018,1.016,1.016,0,0,1-.184-.056,1.053,1.053,0,0,1-.171-.091,1.025,1.025,0,0,1-.15-.123.984.984,0,0,1-.123-.15.994.994,0,0,1-.091-.17,1.036,1.036,0,0,1-.056-.185.994.994,0,0,1-.019-.193,1,1,0,0,1,.166-.547,1,1,0,0,1,.123-.15.992.992,0,0,1,.15-.123,1.051,1.051,0,0,1,.171-.091.984.984,0,0,1,1.075.213.957.957,0,0,1,.122.15,1,1,0,0,1,.166.547,1,1,0,0,1-.02.193,1.037,1.037,0,0,1-.056.185,1,1,0,0,1-.091.17.94.94,0,0,1-.122.15A.989.989,0,0,1,95.185,240.513Zm0,0"
            transform="translate(-84.909 -214.565)" />
        <path id="Path_3441" data-name="Path 3441"
            d="M126.306,274.143h0a22.153,22.153,0,0,1-3.926-.374,17.2,17.2,0,0,1-10.747-6.853.986.986,0,0,1,1.577-1.185,15.064,15.064,0,0,0,9.521,6.1,20.169,20.169,0,0,0,3.575.342.986.986,0,1,1,0,1.972Zm0,0"
            transform="translate(-100.443 -238.718)" />
        <path id="Path_3442" data-name="Path 3442"
            d="M114.84,169s2.144,11.518,11.454,13.206c10.379,1.882,12.711-5.152,10.131-9.323C133.438,168.051,114.84,169,114.84,169Zm0,0"
            transform="translate(-103.514 -151.814)" fill="#f7bb50" />
        <path id="Path_3443" data-name="Path 3443"
            d="M42.079,30.287c.017-.051.034-.1.05-.155,1.536-4.91-1.092-9.78-3.119-12.586A10.6,10.6,0,0,0,40,15.979l2.145.643a.868.868,0,0,0,.092.023,8.16,8.16,0,0,0,1.269.225,1.816,1.816,0,0,0,1.687-2.49l-.6-1.491,1.044-1.16a.993.993,0,0,0,.118-.162,1.816,1.816,0,0,0-1.944-2.7l-2.786.475a10.622,10.622,0,1,0-19.719,7l-.237-.018a88.547,88.547,0,0,0-9.795-.131.991.991,0,0,0-.155.02L8.145,15.44,5.8,14.625a.986.986,0,0,0-1.31.96c.012.409.3,9.2,3.482,14.837a19.869,19.869,0,0,0-5.342,2.419C.885,34.047,0,35.4,0,36.867c0,2.56,2.695,4.769,7.794,6.388a60.04,60.04,0,0,0,17.454,2.3,60.039,60.039,0,0,0,17.454-2.3A17.649,17.649,0,0,0,48.758,40.2,4.366,4.366,0,0,0,50.5,36.867c0-2.645-2.98-4.968-8.417-6.579Zm.639-18.261a.987.987,0,0,0-.183,1.026l.713,1.781-.584-.114-1.928-.577a10.632,10.632,0,0,0,.436-2.818l2.572-.439ZM20.944,18.3c.812.06,1.566.13,2.266.208.028,0,.057.008.085.01,6.379.731,8.241,2.2,8.778,3.069a5.233,5.233,0,0,1-.008,5.615c-1.514,2.222-4.749,3.01-9.109,2.219-3.539-.642-6.4-2.894-8.5-6.693a22.115,22.115,0,0,1-1.878-4.6c1.693-.045,4.962-.078,8.37.171ZM7.533,17.316c.024.008.049.016.074.022l2.916.765A23.957,23.957,0,0,0,12.7,23.631c2.372,4.313,5.8,6.986,9.907,7.732a19.329,19.329,0,0,0,3.445.333c4.559,0,6.709-2.008,7.646-3.382a7.137,7.137,0,0,0,.055-7.763c-1.235-2-4.481-3.3-9.89-3.951a8.649,8.649,0,1,1,13.159.264.986.986,0,0,0-.044,1.257c1.464,1.9,4.714,6.81,3.27,11.425-1.661,5.31-7.653,9.025-14.246,8.83-6.526-.192-11.557-2.651-15.381-7.517C7.665,27.1,6.795,20.015,6.551,16.975ZM42.1,41.375a58.063,58.063,0,0,1-16.857,2.21,58.063,58.063,0,0,1-16.857-2.21C4.372,40.1,1.973,38.413,1.973,36.867c0-1.639,2.729-3.44,7.145-4.729a21.276,21.276,0,0,0,16.825,8.208c.183.005.364.008.547.008,6.413,0,12.263-3.32,14.819-8.236,4.465,1.293,7.215,3.095,7.215,4.75,0,1.546-2.4,3.232-6.418,4.508Zm0,0"
            transform="translate(0)" />
        <path id="Path_3444" data-name="Path 3444"
            d="M168.833,206.379a1.027,1.027,0,0,1-.177-.016c-2.892-.524-5.269-2.4-7.067-5.583q-.113-.2-.218-.4a.986.986,0,1,1,1.742-.926q.094.176.193.352c1.5,2.646,3.414,4.2,5.7,4.613a.986.986,0,0,1-.175,1.957Zm0,0"
            transform="translate(-145.352 -178.863)" />
        <path id="Path_3445" data-name="Path 3445"
            d="M313.881,81.692a.986.986,0,0,1-.986-.986c0-.145-.208-.308-.486-.308s-.486.163-.486.308a.986.986,0,0,1-1.972,0,2.466,2.466,0,0,1,4.917,0A.986.986,0,0,1,313.881,81.692Zm0,0"
            transform="translate(-279.381 -70.241)" />
    </g>
</svg>
