<svg id="Group_1571" data-name="Group 1571" xmlns="http://www.w3.org/2000/svg" width="16.25"
    height="15.6" viewBox="0 0 16.25 15.6">
    <path id="Path_228" data-name="Path 228"
        d="M148.744,136.34l1.359,2.753a1.487,1.487,0,0,0,1.12.814l3.038.441a1.487,1.487,0,0,1,.824,2.537l-2.2,2.143a1.487,1.487,0,0,0-.428,1.316l.519,3.026a1.462,1.462,0,0,1-.3,1.181h-1.854l-3.409-2.032L144,150.55l-1.814.047a1.462,1.462,0,0,1-.343-1.228l.519-3.026a1.487,1.487,0,0,0-.428-1.316l-2.2-2.143a1.487,1.487,0,0,1,.824-2.537l3.038-.441a1.487,1.487,0,0,0,1.12-.814l1.359-2.753a1.487,1.487,0,0,1,2.667,0Z"
        transform="translate(-139.285 -135.511)" fill="#6e9c1d" />
    <g id="Group_165" data-name="Group 165" transform="translate(2.902 12.387)">
        <path id="Path_229" data-name="Path 229"
            d="M186.024,313.492l-5.056,2.658a1.48,1.48,0,0,0,1.814.34l2.717-1.429a1.487,1.487,0,0,1,1.384,0l2.717,1.429a1.48,1.48,0,0,0,1.814-.34l-5.056-2.658A.36.36,0,0,0,186.024,313.492Z"
            transform="translate(-180.968 -313.451)" fill="#6e9c1d" />
    </g>
</svg>
