<svg xmlns="http://www.w3.org/2000/svg" width="22.466" height="20.339" viewBox="0 0 22.466 20.339">
    <path id="ic_successful"
        d="M14.226,11.707c.06-.053.687.271.752.3a14.8,14.8,0,0,1,1.844.971,11.217,11.217,0,0,1,3.743,3.763c.756,1.258,1.328,3.6,3.154,3.6a3.391,3.391,0,0,0,2.535-.639c.813-.817.828-2.009,1.079-3.064a33.277,33.277,0,0,1,6.947-13.5q.306-.366.622-.725a17.583,17.583,0,0,1,1.357-1.366c.065-.059.177-.179.311-.316A.432.432,0,0,0,36.254,0C33.507.086,26.97,1.524,23.288,12.57c0,0-5.61-3.884-9.062-.863Zm0,0"
        transform="translate(-14.226 0.002)" fill="#78c93c" />
</svg>
