<svg xmlns="http://www.w3.org/2000/svg" width="33.442" height="16.671" viewBox="0 0 33.442 16.671">
    <path id="ic_tortoise"
        d="M30.584,76.775c-3.34.157-2.28,4.022-5.274,4.314.009-.229.014-.459.014-.693a.34.34,0,0,0-.334-.341,40.442,40.442,0,0,1-4.667-.586,43.025,43.025,0,0,0-5.939-.691,6.6,6.6,0,0,0-1.161.086c-3.054.545-5.395,3.453-7.658,6.265C3.75,87.381,2.037,89.51.27,89.886a.342.342,0,0,0,.026.673c.651.088,1.261.173,1.836.256L.342,93.442h3.05L4.478,91.16c.792.12,1.507.232,2.154.332.569.089,1.085.17,1.563.241l-.731,1.709h3.071v-1.4a21.472,21.472,0,0,0,2.353.134c.4,0,.794-.012,1.221-.035a16.518,16.518,0,0,0,2.243-.277v1.574h2.715l-.411-2.228a10.7,10.7,0,0,0,2.85-1.611,9.469,9.469,0,0,0,.964-.891,8.2,8.2,0,0,1,1.488,4.73h3.168c-.069-2.394-2.149-5.121-3.342-6.495a10.875,10.875,0,0,0,1.124-2.859c2.508-.854,4.956-3.325,6.032-3.693,1.132-.388,2.5-.1,2.5-1.487C33.442,77.228,31.585,76.728,30.584,76.775Z"
        transform="translate(0 -76.772)" fill="#fff" />
</svg>
