<svg xmlns="http://www.w3.org/2000/svg" width="203.651" height="202.374" viewBox="0 0 203.651 202.374">
  <g id="Polygon_3" data-name="Polygon 3" transform="translate(90.161) rotate(41)" fill="#fff">
    <path d="M 136.8790283203125 136.9287109375 L 13.49583148956299 136.9287109375 C 10.82030391693115 136.9287109375 8.408467292785645 135.5546569824219 7.044158458709717 133.2530822753906 C 5.679849624633789 130.9515380859375 5.632013320922852 128.1761627197266 6.916158676147461 125.8289566040039 L 68.60775756835938 13.06814098358154 C 69.94390106201172 10.62592220306396 72.40359497070312 9.167885780334473 75.18743133544922 9.167885780334473 C 77.97126770019531 9.167885780334473 80.43093872070312 10.62592220306396 81.76708221435547 13.06814098358154 L 143.4586791992188 125.8289566040039 C 144.7428436279297 128.1761627197266 144.6950073242188 130.9515228271484 143.3307037353516 133.2530670166016 C 141.9664001464844 135.5546264648438 139.5545654296875 136.9287109375 136.8790283203125 136.9287109375 Z" stroke="none"/>
    <path d="M 75.18740844726562 9.667861938476562 C 72.58917236328125 9.667861938476562 70.29347229003906 11.02870178222656 69.04639434814453 13.30810546875 L 7.35479736328125 126.0689239501953 C 6.15625 128.2596588134766 6.200927734375 130.8500213623047 7.474273681640625 132.9981231689453 C 8.747634887695312 135.1462249755859 10.99867248535156 136.4286804199219 13.49583435058594 136.4286804199219 L 136.8790283203125 136.4286804199219 C 139.3761901855469 136.4286804199219 141.6272277832031 135.1462249755859 142.9005889892578 132.9981079101562 C 144.1739349365234 130.8500061035156 144.2185668945312 128.2596435546875 143.0200347900391 126.0689239501953 L 81.32845306396484 13.30810546875 C 80.08137512207031 11.02870178222656 77.78567504882812 9.667861938476562 75.18740844726562 9.667861938476562 M 75.18742370605469 8.667861938476562 C 77.93787384033203 8.667861938476562 80.68833160400391 10.05462646484375 82.20573425292969 12.82814025878906 L 143.8973083496094 125.5889663696289 C 146.8140563964844 130.9201812744141 142.9559783935547 137.4286804199219 136.8790283203125 137.4286804199219 L 13.49583435058594 137.4286804199219 C 7.418869018554688 137.4286804199219 3.560806274414062 130.9201965332031 6.477508544921875 125.5889663696289 L 68.16911315917969 12.82814025878906 C 69.68650817871094 10.05462646484375 72.43696594238281 8.667861938476562 75.18742370605469 8.667861938476562 Z" stroke="none" fill="#707070"/>
  </g>
</svg>
