<svg xmlns="http://www.w3.org/2000/svg" width="224.64" height="226.604" viewBox="0 0 224.64 226.604">
  <g id="Polygon_2" data-name="Polygon 2" transform="matrix(0.574, 0.819, -0.819, 0.574, 129.426, 0)" fill="#fff">
    <path d="M 116.6125030517578 153.1219635009766 C 115.202262878418 153.1220397949219 113.7800598144531 152.9662170410156 112.385383605957 152.6588439941406 L 87.41221618652344 147.1548767089844 C 85.9656982421875 146.8360748291016 84.48121643066406 146.6744232177734 83 146.6744232177734 C 81.51878356933594 146.6744232177734 80.03427886962891 146.8360748291016 78.58778381347656 147.1548767089844 L 53.61462020874023 152.6588439941406 C 52.22029876708984 152.9661407470703 50.79808044433594 153.1219635009766 49.38748168945312 153.1219635009766 C 44.6053581237793 153.1219635009766 39.99340057373047 151.3515777587891 36.40116119384766 148.1369323730469 C 32.75617980957031 144.8750762939453 30.48637962341309 140.3909759521484 30.00992012023926 135.5106201171875 L 27.52067947387695 110.013916015625 C 27.23387908935547 107.0763168334961 26.29281997680664 104.1779937744141 24.79925918579102 101.6322402954102 L 11.83092021942139 79.52803802490234 C 10.38906002044678 77.07041931152344 9.516880035400391 74.40316009521484 9.238639831542969 71.60029602050781 C 8.971139907836914 68.90570068359375 9.262479782104492 66.22547912597656 10.10453987121582 63.63411712646484 C 10.94659996032715 61.0427360534668 12.28643989562988 58.70321655273438 14.08681964874268 56.68057632446289 C 15.95950031280518 54.57667922973633 18.23298072814941 52.93157577514648 20.84410095214844 51.79097747802734 L 44.30302047729492 41.54345703125 C 47.01015853881836 40.36089706420898 49.47692108154297 38.56739807128906 51.43664169311523 36.35683822631836 L 68.40846252441406 17.21281814575195 C 70.30039978027344 15.07873725891113 72.56864166259766 13.4223575592041 75.15017700195312 12.28967761993408 C 77.63188171386719 11.20079803466797 80.27294158935547 10.64869785308838 83 10.64869785308838 C 85.72704315185547 10.64869785308838 88.36810302734375 11.20079803466797 90.84980010986328 12.28967761993408 C 93.43134307861328 13.4223575592041 95.69957733154297 15.07873725891113 97.59152221679688 17.21281814575195 L 114.5633392333984 36.35683822631836 C 116.523063659668 38.56739807128906 118.9898376464844 40.36087799072266 121.6969604492188 41.54343795776367 L 145.1559143066406 51.79097747802734 C 147.7670440673828 52.93157577514648 150.0404968261719 54.57665634155273 151.9131927490234 56.68055725097656 C 153.7135620117188 58.70319747924805 155.0534057617188 61.04269790649414 155.8954620361328 63.63407897949219 C 156.7375335693359 66.22545623779297 157.0288543701172 68.90567779541016 156.7613830566406 71.60028076171875 C 156.4831237792969 74.40313720703125 155.6109619140625 77.07041931152344 154.1690979003906 79.52803802490234 L 141.2007446289062 101.6322174072266 C 139.7071990966797 104.1779556274414 138.7661437988281 107.0762939453125 138.4793243408203 110.013916015625 L 135.9900665283203 135.5106201171875 C 135.5136413574219 140.3905334472656 133.2437591552734 144.8744812011719 129.5985412597656 148.1364440917969 C 126.0061569213867 151.3511352539062 121.3943023681641 153.1216735839844 116.6125030517578 153.1219635009766 Z" stroke="none"/>
    <path d="M 82.99997711181641 11.14869689941406 C 80.34252166748047 11.14869689941406 77.76904296875 11.68661499023438 75.35105895996094 12.74754333496094 C 72.836181640625 13.8509521484375 70.62624359130859 15.46490478515625 68.78260040283203 17.54452514648438 L 51.81078338623047 36.68851470947266 C 49.80328369140625 38.95299530029297 47.27633666992188 40.79023742675781 44.50315856933594 42.00164031982422 L 21.04421997070312 52.24916076660156 C 18.49978637695312 53.36065673828125 16.28462219238281 54.96343994140625 14.46028137207031 57.01300048828125 C 12.70614624023438 58.98371887207031 11.400634765625 61.26335906982422 10.58006286621094 63.78861999511719 C 9.759475708007812 66.31385803222656 9.475555419921875 68.92547607421875 9.7362060546875 71.55089569091797 C 10.00726318359375 74.28137969970703 10.85711669921875 76.88013458251953 12.26217651367188 79.27501678466797 L 25.23051452636719 101.3792419433594 C 26.760498046875 103.987060546875 27.72450256347656 106.9561004638672 28.01829528808594 109.96533203125 L 30.50753784179688 135.4620361328125 C 30.9718017578125 140.21728515625 33.18327331542969 144.5863189697266 36.73457336425781 147.7643432617188 C 40.23500061035156 150.8967895507812 44.72853851318359 152.6219329833984 49.38745880126953 152.6219329833984 C 50.76197814941406 152.6219329833984 52.14800262451172 152.4700622558594 53.50701904296875 152.1705322265625 L 78.48016357421875 146.6665954589844 C 79.96189880371094 146.3400115966797 81.48259735107422 146.1744232177734 83 146.1744232177734 C 84.51737976074219 146.1744232177734 86.03806304931641 146.3400115966797 87.51982116699219 146.6665954589844 L 112.4929809570312 152.1705322265625 C 113.8520812988281 152.4700622558594 115.2380981445312 152.6219329833984 116.6125411987305 152.6219329833984 C 121.2710571289062 152.6219329833984 125.7644958496094 150.8967132568359 129.2651214599609 147.7640533447266 C 132.8166656494141 144.5858612060547 135.0282135009766 140.2169036865234 135.492431640625 135.4620361328125 L 137.9817047119141 109.96533203125 C 138.2754821777344 106.9561004638672 139.2394714355469 103.9870758056641 140.7694854736328 101.3791961669922 L 153.7378387451172 79.27503967285156 C 155.1428985595703 76.88013458251953 155.9927673339844 74.28137969970703 156.2638244628906 71.55089569091797 C 156.5244445800781 68.92547607421875 156.2405242919922 66.31385803222656 155.4199371337891 63.78861999511719 C 154.599365234375 61.26335906982422 153.2938537597656 58.98371887207031 151.5397186279297 57.01300048828125 C 149.7153778076172 54.96343994140625 147.5002136230469 53.36065673828125 144.9557800292969 52.24916076660156 L 121.4968185424805 42.00161743164062 C 118.7236404418945 40.79021453857422 116.1967163085938 38.95298004150391 114.1892013549805 36.68851470947266 L 97.21737670898438 17.54452514648438 C 95.37371826171875 15.46490478515625 93.16378021240234 13.8509521484375 90.64890289306641 12.74754333496094 C 88.23091888427734 11.68661499023438 85.65746307373047 11.14869689941406 82.99997711181641 11.14869689941406 M 82.99999237060547 10.14869689941406 C 88.49331665039062 10.14869689941406 93.98664855957031 12.39285278320312 97.96566009521484 16.88113403320312 L 114.9374847412109 36.02513885498047 C 116.8627395629883 38.19681549072266 119.2375793457031 39.92347717285156 121.8971252441406 41.08523559570312 L 145.3560791015625 51.33277893066406 C 156.3387756347656 56.13034057617188 160.6650390625 69.44391632080078 154.6003570556641 79.78105926513672 L 141.6320037841797 101.8852386474609 C 140.1646575927734 104.3862991333008 139.2587280273438 107.1764984130859 138.9769592285156 110.0625 L 136.4877014160156 135.5592041015625 C 135.3224792480469 147.4943389892578 123.9885711669922 155.7281188964844 112.2777557373047 153.1470947265625 L 87.30460357666016 147.6431579589844 C 84.46887969970703 147.0181732177734 81.53110504150391 147.0181732177734 78.69539642333984 147.6431579589844 L 53.72223663330078 153.1470947265625 C 42.01142120361328 155.7281188964844 30.67752075195312 147.4943389892578 29.51228332519531 135.5592041015625 L 27.02304077148438 110.0625 C 26.74125671386719 107.1764984130859 25.8353271484375 104.3862991333008 24.36799621582031 101.88525390625 L 11.399658203125 79.78105926513672 C 5.3349609375 69.44393920898438 9.66119384765625 56.13034057617188 20.6439208984375 51.33277893066406 L 44.10285949707031 41.08525848388672 C 46.76239776611328 39.92350006103516 49.13723754882812 38.19683837890625 51.0625 36.02513885498047 L 68.03431701660156 16.88113403320312 C 72.01332855224609 12.39285278320312 77.50666046142578 10.14869689941406 82.99999237060547 10.14869689941406 Z" stroke="none" fill="#707070"/>
  </g>
</svg>
