<svg xmlns="http://www.w3.org/2000/svg" width="136.9" height="134.461" viewBox="0 0 136.9 134.461">
    <g id="img_parent" transform="translate(0 0)">
        <g id="Group_250" data-name="Group 250" transform="translate(0 89.803)">
            <path id="Path_409" data-name="Path 409"
                d="M112.673,341.859l45.134,22.568a18.335,18.335,0,0,1,9.966,13.9l1.127,8.19H32l1.127-8.19a18.335,18.335,0,0,1,9.966-13.9l45.134-22.568Z"
                transform="translate(-32 -341.859)" fill="#ea9d2d" />
            <path id="Path_410" data-name="Path 410"
                d="M43.089,411.648l3.578-1.788v23.878H32l1.128-8.189A18.345,18.345,0,0,1,43.089,411.648Z"
                transform="translate(-32 -389.08)" fill="#ea9d2d" />
            <path id="Path_411" data-name="Path 411"
                d="M446.668,433.738H432V409.86l3.578,1.788a18.345,18.345,0,0,1,9.962,13.9Z"
                transform="translate(-309.768 -389.08)" fill="#ea9d2d" />
            <path id="Path_412" data-name="Path 412"
                d="M216.261,351.363l-31.23,25.375L153.8,351.363l10.518-5.259,8.489-4.244h24.446l9.907,4.953Z"
                transform="translate(-116.58 -341.86)" fill="#ea9d2d" />
        </g>
        <path id="Path_413" data-name="Path 413"
            d="M234.225,322.082l-4.889-2.445v-9.779H204.889v9.779L200,322.082l17.112,7.334Z"
            transform="translate(-148.663 -229.835)" fill="#f6bb92" />
        <path id="Path_414" data-name="Path 414"
            d="M240.446,309.86v3.557c-.024.018-.052.034-.076.052a21.666,21.666,0,0,1-24.37-.052V309.86Z"
            transform="translate(-159.773 -229.835)" fill="#f6bb92" />
        <path id="Path_415" data-name="Path 415"
            d="M240.446,309.86v3.557c-.024.018-.052.034-.076.052a21.666,21.666,0,0,1-24.37-.052V309.86Z"
            transform="translate(-159.773 -229.835)" fill="#e6af89" />
        <path id="Path_416" data-name="Path 416"
            d="M46.668,409.86v23.878H32l1.128-8.189a18.345,18.345,0,0,1,9.962-13.9Z"
            transform="translate(-32 -299.277)" fill="#cbcbcb" />
        <path id="Path_417" data-name="Path 417"
            d="M446.668,433.738H432V409.86l3.578,1.788a18.345,18.345,0,0,1,9.962,13.9Z"
            transform="translate(-309.768 -299.277)" fill="#cbcbcb" />
        <path id="Path_418" data-name="Path 418"
            d="M200.446,144.019A21.665,21.665,0,0,1,180.331,130.4,60.553,60.553,0,0,1,176,107.912V88.446a24.446,24.446,0,0,1,48.893,0v19.465a60.556,60.556,0,0,1-4.332,22.492A21.666,21.666,0,0,1,200.446,144.019Z"
            transform="translate(-131.997 -59.105)" fill="#f6bb92" />
        <path id="Path_419" data-name="Path 419"
            d="M281.779,172.889h-7.334a2.445,2.445,0,0,1,0-4.889h7.334a2.445,2.445,0,0,1,0,4.889Z"
            transform="translate(-198.661 -131.325)" fill="#040729" />
        <ellipse id="Ellipse_58" data-name="Ellipse 58" cx="3.056" cy="3.056" rx="3.056" ry="3.056"
            transform="translate(75.784 43.355)" fill="#3e250c" />
        <path id="Path_420" data-name="Path 420"
            d="M209.779,172.889h-7.334a2.445,2.445,0,1,1,0-4.889h7.334a2.445,2.445,0,1,1,0,4.889Z"
            transform="translate(-148.663 -131.325)" fill="#040729" />
        <ellipse id="Ellipse_59" data-name="Ellipse 59" cx="3.056" cy="3.056" rx="3.056" ry="3.056"
            transform="translate(55.004 43.355)" fill="#3e250c" />
        <path id="Path_421" data-name="Path 421"
            d="M247.334,227.265h-4.889A2.445,2.445,0,0,1,240,224.821v-4.235a2.445,2.445,0,0,1,4.889,0v1.79h2.445a2.445,2.445,0,1,1,0,4.889Z"
            transform="translate(-176.439 -166.144)" fill="#e6af89" />
        <path id="Path_422" data-name="Path 422"
            d="M154.7,173.859h-4.3a6.4,6.4,0,0,0-6.4,6.4v4.312a6.4,6.4,0,0,0,6.4,6.4H155Z"
            transform="translate(-109.775 -135.394)" fill="#f6bb92" />
        <path id="Path_423" data-name="Path 423"
            d="M332.306,173.859h4.3a6.4,6.4,0,0,1,6.4,6.4v4.312a6.4,6.4,0,0,1-6.4,6.4H332Z"
            transform="translate(-240.326 -135.394)" fill="#f6bb92" />
        <path id="Path_424" data-name="Path 424"
            d="M225.779,240h4.889a9.779,9.779,0,0,1,9.779,9.779H216A9.779,9.779,0,0,1,225.779,240Z"
            transform="translate(-159.773 -181.323)" fill="#040729" />
        <path id="Path_425" data-name="Path 425"
            d="M201.9,89.546l-.306-1.228a22.8,22.8,0,0,0-9.473-13.44l-.061.024a68.653,68.653,0,0,1-25.262,4.91l-10.443.036a13.2,13.2,0,0,1-11.85-7.282l-.238-.474a12.979,12.979,0,0,1,1.067-13.4l.175-.244a25.157,25.157,0,0,1,20.436-10.465l8.476,0a25.041,25.041,0,0,1,17.7,7.336l.989,0a10.217,10.217,0,0,1,9.167,5.648l.092.187A26.651,26.651,0,0,1,204.4,79.564C203.158,84.517,201.9,89.546,201.9,89.546Z"
            transform="translate(-109.004 -47.982)" fill="#040729" />
        <path id="Path_426" data-name="Path 426" d="M224,379.4l9.779,7.334,9.779-7.334-9.779-5.543Z"
            transform="translate(-165.329 -274.278)" fill="#cbcbcb" />
        <path id="Path_427" data-name="Path 427"
            d="M216.261,361.009l-31.23,25.375L153.8,361.009l10.518-5.259,20.712,18.411,22.13-17.7Z"
            transform="translate(-116.58 -261.702)" fill="#c38325" />
        <path id="Path_428" data-name="Path 428"
            d="M191.334,336,206,347.569l-19.557,15.322L184,342.68Z"
            transform="translate(-137.552 -247.988)" fill="#eaeae8" />
        <path id="Path_429" data-name="Path 429"
            d="M270.668,336,256,347.569l19.557,15.322L278,342.68Z"
            transform="translate(-187.55 -247.988)" fill="#eaeae8" />
    </g>
</svg>
